<svg id="コンポーネント_1_4" data-name="コンポーネント 1 – 4" xmlns="http://www.w3.org/2000/svg" width="50" height="68" viewBox="0 0 50 68">
  <path id="合体_1" data-name="合体 1" d="M17.42,63.48V18.308H10.2a4.9,4.9,0,1,1,0-9.808H17.42V4.521a4.521,4.521,0,0,1,9.041,0V8.5h7a4.9,4.9,0,1,1,0,9.808h-7V63.48a4.521,4.521,0,1,1-9.041,0ZM-4,42.756A7.8,7.8,0,0,1,3.836,35a7.757,7.757,0,1,1,0,15.513A7.8,7.8,0,0,1-4,42.756Zm36.328-5.487a6.836,6.836,0,1,1,6.836,6.757A6.8,6.8,0,0,1,32.328,37.269Z" transform="translate(4)" fill="#ebe5df"/>
</svg>
