<svg xmlns="http://www.w3.org/2000/svg" width="139.402" height="19.286" viewBox="0 0 139.402 19.286">
  <path id="パス_176" data-name="パス 176" d="M15.98-13a22.506,22.506,0,0,1,2.54.12v-2.9a21.075,21.075,0,0,1-2.54.12h-4.6a7.258,7.258,0,0,1,.12-1.32H8.26a8.074,8.074,0,0,1,.1,1.32H4.12a21.916,21.916,0,0,1-2.56-.12v2.9A22.4,22.4,0,0,1,4.12-13h2.1A13.778,13.778,0,0,1,.86-10.96,9.824,9.824,0,0,1,2.28-8.44c.86-.26,1.24-.4,1.9-.66a8.6,8.6,0,0,1,.06,1.16v.26H2.78a11.918,11.918,0,0,1-1.96-.1v2.86a11.687,11.687,0,0,1,1.9-.1h.9A10.561,10.561,0,0,1,.36-1.76,12.489,12.489,0,0,1,1.82.92,9.179,9.179,0,0,0,4.28-1.9a8.043,8.043,0,0,0-.04.94V.28a8.262,8.262,0,0,1-.1,1.52h3A9.135,9.135,0,0,1,7.04.14V-1.44A8.666,8.666,0,0,0,6.98-2.5,5.941,5.941,0,0,0,8.22-.9c.14-.34.2-.48.32-.72A13.323,13.323,0,0,1,10.02.76,10.854,10.854,0,0,0,12.68-2.1a8.865,8.865,0,0,0-.04.9V.06a10.112,10.112,0,0,1-.12,1.74H15.6A8.469,8.469,0,0,1,15.5.12V-1.4c0-.18-.04-.72-.06-.9A9.6,9.6,0,0,0,18.14.76a12.879,12.879,0,0,1,1.54-2.78,10.11,10.11,0,0,1-3.48-3h1.08a11.94,11.94,0,0,1,1.94.1V-7.78a11.769,11.769,0,0,1-1.96.1H15.5v-.28a8.8,8.8,0,0,1,.06-1.22,18.087,18.087,0,0,0,2.3.8,11.809,11.809,0,0,1,1.42-2.66A12.887,12.887,0,0,1,13.8-13ZM12.56-9.24a6.89,6.89,0,0,1,.08,1.3v.26h-.72A11.078,11.078,0,0,1,10-7.78v2.84a12.739,12.739,0,0,1,1.74-.08h.24A11.875,11.875,0,0,1,8.7-1.92a12.292,12.292,0,0,1,.88-1.5,8.918,8.918,0,0,1-2-1.6h.18a12.7,12.7,0,0,1,1.76.08V-7.78a10.974,10.974,0,0,1-1.88.1h-.6v-.26a6.517,6.517,0,0,1,.08-1.28H4.44a13.112,13.112,0,0,0,3.98-2.44,3.336,3.336,0,0,0-.04.64v1.48a8.915,8.915,0,0,1-.1,1.26h3.18a5.378,5.378,0,0,1-.1-1.3v-1.5c0-.22-.02-.32-.02-.44a1.026,1.026,0,0,1-.02-.2,14.689,14.689,0,0,0,4.1,2.48ZM42.72,1.6a25.245,25.245,0,0,1-.12-2.78v-12.7a18.394,18.394,0,0,1,.1-2.24,20.451,20.451,0,0,1-2.32.1H27.68a20.6,20.6,0,0,1-2.34-.1,19.856,19.856,0,0,1,.1,2.24v12.7a24.023,24.023,0,0,1-.12,2.78h3.16V.58H39.56V1.6ZM28.48-13.24h3.9V-9.2h-3.9Zm6.92,0h4.14V-9.2H35.4ZM28.48-6.4h3.9v4.2h-3.9Zm6.92,0h4.14v4.2H35.4ZM60.56-1.04a24.645,24.645,0,0,1-.14,2.86h3.36a22.873,22.873,0,0,1-.14-2.86V-4.76A29.328,29.328,0,0,0,66.4-3.2a13.239,13.239,0,0,1,1.5-3.12,17.286,17.286,0,0,1-4.26-2.02v-6.12a16.808,16.808,0,0,1,.12-2.52H60.44a16.808,16.808,0,0,1,.12,2.52v3.64a12.493,12.493,0,0,1-1.44-1.84c.04-.42.04-.54.08-1.04.06-.54.08-.76.14-1.1-.56.04-.86.06-1.68.06H55.04c.38-1.46.38-1.46.5-1.82l-3.22-.52a13.379,13.379,0,0,1-.54,2.7,13.417,13.417,0,0,1-3.22,5.66,9.939,9.939,0,0,1,1.8,2.84c.62-.72.86-1.02,1.4-1.74A13.235,13.235,0,0,1,53.9-5.36,15.2,15.2,0,0,1,48.92-.68a8.644,8.644,0,0,1,2.16,2.5A17.156,17.156,0,0,0,58.6-9.26a22.5,22.5,0,0,0,1.96,2.1ZM56.18-12.08a17.76,17.76,0,0,1-.92,3.98,16.817,16.817,0,0,0-2-1.96c.34-.66.56-1.14.92-2.02ZM79.24-3.74a5.519,5.519,0,0,1-1-.08v2.6a6.491,6.491,0,0,1,1-.06v.4a19.057,19.057,0,0,1-.12,2.72h2.94a23.855,23.855,0,0,1-.08-2.72v-.4H87.5V-.8c0,.32-.14.38-.8.38a9.149,9.149,0,0,1-1.32-.12,6.723,6.723,0,0,1,.5,2.26c.64.02.94.04,1.32.04,2.52,0,3.04-.36,3.04-2.1v-.94a7.411,7.411,0,0,1,1.06.08V-3.84a5.58,5.58,0,0,1-1.06.08V-6.38a17.305,17.305,0,0,1,.08-1.9,13.222,13.222,0,0,1-1.78.08H86.1v-.56h3.34a16.463,16.463,0,0,1,1.82.08v-2.3a16.249,16.249,0,0,1-1.8.1h-.94v-.58h.68a8.092,8.092,0,0,1,1.34.06v-1.86c-.4.04-1,.08-1.36.08h-.66v-.6h.9a11.215,11.215,0,0,1,1.6.08v-2.14a14.619,14.619,0,0,1-1.6.1h-.9a3.525,3.525,0,0,1,.12-1.16H85.6a3.715,3.715,0,0,1,.12,1.16H83.78a3.385,3.385,0,0,1,.12-1.16H80.86a3.454,3.454,0,0,1,.12,1.16h-.5a9.3,9.3,0,0,1-1.56-.1v2.14a12.744,12.744,0,0,1,1.6-.08h.46v.6h-.36a9.573,9.573,0,0,1-1.36-.08v1.86a11.086,11.086,0,0,1,1.36-.06h.36v.58H80.3a9.962,9.962,0,0,1-1.54-.08v-2.7a5.8,5.8,0,0,1-1.08.08h-.2v-1.36a14.819,14.819,0,0,1,.1-2.08h-3.1a14.169,14.169,0,0,1,.12,2.08v1.36h-.58a5.193,5.193,0,0,1-1.28-.1v2.9a5.394,5.394,0,0,1,1.28-.1h.4A13.118,13.118,0,0,1,72.18-5.5a19.777,19.777,0,0,1,1.3,2.96,10.525,10.525,0,0,0,1.2-2.72c-.04.62-.06,1.38-.06,2.12V-.72a19.246,19.246,0,0,1-.14,2.58H77.6a23.28,23.28,0,0,1-.12-2.58V-4.9c-.02-1.1-.04-1.76-.06-1.96a6.548,6.548,0,0,0,.8,1.46,13.054,13.054,0,0,1,1-2.06c.02.36.02.54.02.94Zm2.74.28v-.72h1.5v.72Zm0-2.24v-.68h1.5v.68Zm3.94,2.24v-.72H87.5v.72Zm0-2.24v-.68H87.5v.68ZM83.26-8.76v.56h-2.5c-.62,0-1.08-.02-1.52-.04a2.37,2.37,0,0,1-.44-.46c.4-.04,1.04-.06,1.66-.06ZM78.7-8.84a7.1,7.1,0,0,1-1.06-2.04,7.39,7.39,0,0,1,1.06.06Zm5.08-2.04v-.58h1.94v.58Zm0-2.3v-.6h1.94v.6Zm20.78,7.2a12.223,12.223,0,0,1,1.64-.08h.9l-2.18,1.1a25.3,25.3,0,0,0,2.2,2.68,12.507,12.507,0,0,1-3.04,1.2V-3.6a11.144,11.144,0,0,1,.04-1.32,6.006,6.006,0,0,1-1.22.06H98.66c-.66,0-1-.02-1.48-.06a11.921,11.921,0,0,1,.08,1.5v3.2c0,.64-.04,1.3-.1,1.98h2.86V.94h1.38v.54h2.74a9.083,9.083,0,0,1-.06-1.46V-.36a11.282,11.282,0,0,1,1.24,2.16,16.106,16.106,0,0,0,4.2-2.06A17.454,17.454,0,0,0,114.4,1.8a16.948,16.948,0,0,1,1.32-3,13.473,13.473,0,0,1-3.86-1.22,15.924,15.924,0,0,0,2.38-4.14,8.306,8.306,0,0,1,.4-.94l-1.4-1.36a8.933,8.933,0,0,1-1.32.06h-5.4a6.75,6.75,0,0,0,1.84-4.94h1.36v2.82c0,.72.12,1.02.5,1.2a6.13,6.13,0,0,0,2.68.28c2.26,0,2.6-.48,2.78-3.94a10.625,10.625,0,0,1-2.28-.9c-.04,2.18-.06,2.22-.58,2.22-.32,0-.4-.04-.4-.24v-2.8a14.791,14.791,0,0,1,.06-1.48,14.2,14.2,0,0,1-1.66.08H107.1a12.824,12.824,0,0,1-1.58-.08,7.46,7.46,0,0,1,.08,1.18,8.439,8.439,0,0,1-.54,3.5,3.384,3.384,0,0,1-1.08,1.3,7.621,7.621,0,0,1-1.1.04H98.54a9.8,9.8,0,0,1-1.2-.04v2.26a9.461,9.461,0,0,1,1.2-.04h4.34a8.93,8.93,0,0,1,1.16.04V-10.2a16.561,16.561,0,0,1,1.78,1.4,7.537,7.537,0,0,1-1.26-.08Zm6.26-.08a8.392,8.392,0,0,1-1.42,2.02,11.165,11.165,0,0,1-1.72-2.02ZM99.96-2.7h1.44v1.3H99.96ZM97.3-14.38c.54-.04,1.02-.06,1.82-.06h3.1c.86,0,1.22.02,1.82.06v-2.34a14.505,14.505,0,0,1-1.82.08h-3.1a14.505,14.505,0,0,1-1.82-.08Zm-.6,3.22a11.9,11.9,0,0,1,1.62-.08h4.5a9.562,9.562,0,0,1,1.58.06v-2.66a15.726,15.726,0,0,1-1.62.06H98.32a9.052,9.052,0,0,1-1.62-.1Zm.64,5.66a8.93,8.93,0,0,1,1.16-.04h4.34a9.461,9.461,0,0,1,1.2.04V-7.76a8.282,8.282,0,0,1-1.16.04H98.54a9.292,9.292,0,0,1-1.2-.04Zm32.1-2.7c.78-.08,1.68-.12,2.56-.12h.86v6.98a24.76,24.76,0,0,1-.14,3.18h3.42A26.023,26.023,0,0,1,136-1.34V-8.32h.92c.88,0,1.58.04,2.48.12v-3.12a19.842,19.842,0,0,1-2.46.12H136v-3.2a16.771,16.771,0,0,1,.12-2.56h-3.38a17.248,17.248,0,0,1,.12,2.56v3.2h-.88a22.655,22.655,0,0,1-2.36-.1v-2.48a11.485,11.485,0,0,1-1.64.08h-5.5a9.3,9.3,0,0,1-1.64-.1v2.7a13.214,13.214,0,0,1,1.64-.08h5.5c.78,0,1.14.02,1.46.04Zm-7.88-6.1c.52-.04,1-.06,1.84-.06h3.68c.84,0,1.32.02,1.82.06v-2.34a14.3,14.3,0,0,1-1.82.08H123.4a14.658,14.658,0,0,1-1.84-.08Zm.04,6.02c.32-.02.6-.04,1.2-.04h4.94a8.752,8.752,0,0,1,1.14.04v-2.28a8.111,8.111,0,0,1-1.14.04H122.8a9.978,9.978,0,0,1-1.2-.04Zm0,2.86a9.433,9.433,0,0,1,1.16-.04h4.92a9.461,9.461,0,0,1,1.2.04V-7.7a8.93,8.93,0,0,1-1.16.04H122.8c-.6,0-.86-.02-1.2-.04Zm2.8,6.46h1.74v.52h2.92a13.953,13.953,0,0,1-.08-1.8V-3.36c0-.6.02-1.06.06-1.48a8.8,8.8,0,0,1-1.22.06H122.9a12.571,12.571,0,0,1-1.44-.04,11.4,11.4,0,0,1,.08,1.48V-.06a17.074,17.074,0,0,1-.08,1.9h2.94Zm-.08-3.6h1.84v1.22h-1.84Z" transform="translate(-0.148 17.255)" stroke="#000" stroke-width="0.3"/>
</svg>
