<svg xmlns="http://www.w3.org/2000/svg" width="58" height="52" viewBox="0 0 58 52">
  <g id="グループ_1" data-name="グループ 1" transform="translate(-711.258 -88.683)">
    <g id="コンポーネント_1_22" data-name="コンポーネント 1 – 22" transform="translate(711.258 115.683)">
      <path id="合体_1" data-name="合体 1" d="M11.122,22.653V9.154H7.277a2.452,2.452,0,0,1,0-4.9h3.846v-1.9a2.347,2.347,0,0,1,4.694,0v1.9h3.731a2.452,2.452,0,0,1,0,4.9H15.817v13.5a2.347,2.347,0,1,1-4.694,0ZM0,17.878A3.977,3.977,0,0,1,4.069,14a3.977,3.977,0,0,1,4.069,3.878,3.977,3.977,0,0,1-4.069,3.878A3.977,3.977,0,0,1,0,17.878Zm18.863-1.5a4.073,4.073,0,0,1,8.137,0,4.073,4.073,0,0,1-8.137,0Z" transform="translate(0 0)"/>
    </g>
    <g id="コンポーネント_1_23" data-name="コンポーネント 1 – 23" transform="translate(726.258 88.683)">
      <path id="合体_1-2" data-name="合体 1" d="M11.122,27.653V9.154H7.277a2.452,2.452,0,0,1,0-4.9h3.846v-1.9a2.347,2.347,0,0,1,4.694,0v1.9h3.731a2.452,2.452,0,0,1,0,4.9H15.817v18.5a2.347,2.347,0,1,1-4.694,0ZM0,17.878A3.977,3.977,0,0,1,4.069,14a3.977,3.977,0,0,1,4.069,3.878,3.977,3.977,0,0,1-4.069,3.878A3.977,3.977,0,0,1,0,17.878Zm18.863,0a4.073,4.073,0,0,1,8.137,0,4.073,4.073,0,0,1-8.137,0Z" transform="translate(0 0)"/>
    </g>
    <g id="コンポーネント_1_24" data-name="コンポーネント 1 – 24" transform="translate(742.258 115.683)">
      <path id="合体_1-3" data-name="合体 1" d="M11.122,22.653V9.154H7.277a2.452,2.452,0,0,1,0-4.9h3.846v-1.9a2.347,2.347,0,0,1,4.694,0v1.9h3.731a2.452,2.452,0,0,1,0,4.9H15.817v13.5a2.347,2.347,0,1,1-4.694,0ZM0,19.379A3.977,3.977,0,0,1,4.069,15.5a3.978,3.978,0,0,1,4.069,3.879,3.978,3.978,0,0,1-4.069,3.878A3.977,3.977,0,0,1,0,19.379Zm18.863-1.5a4.073,4.073,0,0,1,8.137,0,4.073,4.073,0,0,1-8.137,0Z" transform="translate(0 0)"/>
    </g>
  </g>
</svg>
