<svg xmlns="http://www.w3.org/2000/svg" xmlns:xlink="http://www.w3.org/1999/xlink" width="126" height="218" viewBox="0 0 126 218">
  <defs>
    <clipPath id="clip-path">
      <rect id="長方形_45" data-name="長方形 45" width="126" height="218" transform="translate(1636 1540)" fill="#fff" stroke="#707070" stroke-width="1"/>
    </clipPath>
    <linearGradient id="linear-gradient" x1="-2.576" y1="-0.846" x2="-2.773" y2="0.127" gradientUnits="objectBoundingBox">
      <stop offset="0" stop-color="#827700"/>
      <stop offset="0.671" stop-color="#aba590"/>
    </linearGradient>
    <linearGradient id="linear-gradient-2" x1="-1.908" y1="-0.452" x2="-2.505" y2="0.538" xlink:href="#linear-gradient"/>
    <linearGradient id="linear-gradient-3" x1="-436.484" y1="-106.652" x2="-437.128" y2="-105.67" xlink:href="#linear-gradient"/>
    <linearGradient id="linear-gradient-4" x1="0.709" y1="-0.417" x2="0.12" y2="0.57" xlink:href="#linear-gradient"/>
    <linearGradient id="linear-gradient-5" x1="-3.244" y1="-1.768" x2="-3.213" y2="-0.547" xlink:href="#linear-gradient"/>
    <linearGradient id="linear-gradient-6" x1="-2.354" y1="-0.888" x2="-2.643" y2="-0.033" gradientUnits="objectBoundingBox">
      <stop offset="0.329" stop-color="#aba590"/>
      <stop offset="1" stop-color="#827700"/>
    </linearGradient>
    <linearGradient id="linear-gradient-7" x1="1.17" y1="-0.517" x2="0.897" y2="0.48" xlink:href="#linear-gradient"/>
    <linearGradient id="linear-gradient-8" x1="-12.357" y1="6.335" x2="-13.289" y2="7.71" xlink:href="#linear-gradient-6"/>
    <linearGradient id="linear-gradient-9" x1="-1.814" y1="-0.389" x2="-2.568" y2="0.597" xlink:href="#linear-gradient"/>
    <linearGradient id="linear-gradient-10" x1="-16.974" y1="-2.053" x2="-17.392" y2="-1.075" xlink:href="#linear-gradient"/>
    <linearGradient id="linear-gradient-11" x1="-9.182" y1="1.463" x2="-9.384" y2="2.856" xlink:href="#linear-gradient"/>
    <linearGradient id="linear-gradient-12" x1="0.114" y1="-0.006" x2="-0.158" y2="0.775" xlink:href="#linear-gradient-6"/>
    <linearGradient id="linear-gradient-13" x1="-78.735" y1="-49.801" x2="-79.102" y2="-48.888" xlink:href="#linear-gradient-6"/>
    <linearGradient id="linear-gradient-14" x1="-4.176" y1="-1.221" x2="-4.347" y2="-0.254" xlink:href="#linear-gradient"/>
    <linearGradient id="linear-gradient-15" x1="-1.998" y1="-0.368" x2="-2.399" y2="0.609" xlink:href="#linear-gradient-6"/>
    <linearGradient id="linear-gradient-16" x1="-4.522" y1="-0.403" x2="-5.424" y2="0.579" xlink:href="#linear-gradient-6"/>
    <linearGradient id="linear-gradient-17" x1="0.15" y1="-1.159" x2="0.194" y2="-0.296" xlink:href="#linear-gradient"/>
    <linearGradient id="linear-gradient-18" x1="-5.094" y1="-0.707" x2="-4.956" y2="0.288" xlink:href="#linear-gradient"/>
    <linearGradient id="linear-gradient-19" x1="-1.241" y1="-0.924" x2="-1.475" y2="0.161" xlink:href="#linear-gradient"/>
    <linearGradient id="linear-gradient-20" x1="-26.997" y1="-370.209" x2="-27.164" y2="-369.218" xlink:href="#linear-gradient"/>
  </defs>
  <g id="マスクグループ_9" data-name="マスクグループ 9" transform="translate(-1636 -1540)" clip-path="url(#clip-path)">
    <g id="グループ_182" data-name="グループ 182" transform="translate(1500.748 1259.51)">
      <g id="グループ_108" data-name="グループ 108" transform="translate(235.549 302.772)">
        <g id="グループ_106" data-name="グループ 106">
          <path id="パス_25" data-name="パス 25" d="M216.995,296.411c-.315-1.875-3.1-1.217-5.431-1.173-2.391.047-6.081-1.047-8.431,1.485a5.123,5.123,0,0,0-1.246,2.429,4.523,4.523,0,0,0,.234,4.95c1.488,2.085,4.11,4.822,8.47,3.835,2.575-.584,5.139-1.777,5.5-4.565C216.34,301.427,217.263,298.009,216.995,296.411Z" transform="translate(-201.26 -295.043)" fill="#819582"/>
          <path id="パス_26" data-name="パス 26" d="M211.937,306.06l.091-.056c1.188-.761,1.864-1.692,1.307-2.543,0-.009,0-.018.014-.023,1.313-.531.651-.708.9-1.35,0-.009.024-.017.024-.017s.542-1.63.641-1.793a10.759,10.759,0,0,0,.727-1.109l.011-.021a3.258,3.258,0,0,0,.218-1.847,1.549,1.549,0,0,0-.23-.592,2.248,2.248,0,0,0-1.707-.639c-.727-.044-1.535-.032-2.379,0-1.465.058-3.068.132-4.106.134-2.229.006-4.838.072-5.694,3.188a5.719,5.719,0,0,0-.093,2.289c.14.787.417,1.645.621,2.423a8.544,8.544,0,0,0,5.941,3.4,12.862,12.862,0,0,0,2.216-.686,11.638,11.638,0,0,0,1.438-.72Z" transform="translate(-201.089 -294.522)" fill="#9aaf9f"/>
          <path id="パス_27" data-name="パス 27" d="M212.677,296.913a18.583,18.583,0,0,0-3.237.738,13.012,13.012,0,0,1-3.835-.018c-.134.015-.268.026-.4.049a2.525,2.525,0,0,0-2.272,2.252c-.175.913-.151,3.17,1.16,3.174.8,0,1.557-.7,2.184-1.045.4-.222,1.322-.762,1.669-.149.279.493-.5,1.076-.8,1.394-.464.5-1.115,1.21-.047,1.662a1.817,1.817,0,0,0,1.893-.237,11.341,11.341,0,0,0,2.526-2.715,24.28,24.28,0,0,0,2.009-3.012C214.165,297.811,214.078,296.8,212.677,296.913Z" transform="translate(-200.429 -294.071)" fill="#9eb8ad"/>
        </g>
        <g id="グループ_107" data-name="グループ 107" transform="translate(2.181 0.101)" opacity="0.37" style="mix-blend-mode: screen;isolation: isolate">
          <path id="パス_28" data-name="パス 28" d="M216.247,296.377c-.259-1.537-2.076-1.275-4.113-1.208a10.529,10.529,0,0,1-2.99,2.079c-2.254.744-5.81-1.147-6.4,2.776-.271,1.8.663,3.765.169,5.428a2.4,2.4,0,0,1-.145.355l.037.035c.033.03.065.061.1.09q.306.269.636.507l.088.059c.2.14.408.269.621.391l.113.064a8.8,8.8,0,0,0,1.327.584,2.583,2.583,0,0,1-.714-2.654c.571-2.274,3.453-3.033,5.506-3.724a11.9,11.9,0,0,0,5.8-4.232A3.291,3.291,0,0,0,216.247,296.377Z" transform="translate(-202.694 -295.109)" fill="#43ab38"/>
        </g>
      </g>
      <g id="グループ_110" data-name="グループ 110" transform="translate(230.99 288.979)">
        <g id="グループ_109" data-name="グループ 109" transform="translate(0 0)">
          <path id="パス_29" data-name="パス 29" d="M205.956,286.329c-2-1.1-3.934.632-5.144,1.965-1.242,1.368-3.06,3.467-2.413,5.44a3.14,3.14,0,0,0,.866,1.335,3.292,3.292,0,0,0,2.372,1.669c3.742.971,8.062-.931,7.28-5.068C208.592,289.952,207.661,287.268,205.956,286.329Z" transform="translate(-198.264 -285.979)" fill="#6f8171"/>
          <path id="パス_30" data-name="パス 30" d="M207.133,294.343l.035-.061c.453-.8.645-1.631.011-2.158-.008,0,0-.014,0-.02.642-.653.178-.654.1-1.184a.015.015,0,0,1,.012-.015,5.949,5.949,0,0,1-.32-1.453,4.882,4.882,0,0,0,0-.966l0-.018a2.4,2.4,0,0,0-1-1.335,2.358,2.358,0,0,0-.663-.306,2.842,2.842,0,0,0-1.936.317,7.279,7.279,0,0,0-1.59,1.147,17.192,17.192,0,0,0-1.968,2.315c-.947,1.3-1.619,2.814-.391,4.247a4.251,4.251,0,0,0,1.045.832c.408.224.886.452,1.283.723a7.48,7.48,0,0,0,3.884-.2,10.575,10.575,0,0,0,.919-1.012,9.428,9.428,0,0,0,.571-.819Z" transform="translate(-198.015 -285.567)" fill="#889b8c"/>
          <path id="パス_31" data-name="パス 31" d="M203.5,287.719a5.968,5.968,0,0,0-1.564,1.817,23.114,23.114,0,0,1-1.925,1.98c-.049.079-.1.157-.145.239a1.617,1.617,0,0,0,.272,2.048c.383.437,1.38,1.423,1.974.851.361-.347.423-1.036.575-1.485.1-.289.326-.975.8-.752.379.18.212.82.189,1.12-.033.466-.084,1.1.609,1.047a.98.98,0,0,0,.9-.72,8.148,8.148,0,0,0,.441-2.549,10.208,10.208,0,0,0-.1-2.611C205.32,287.717,204.435,287.083,203.5,287.719Z" transform="translate(-197.557 -285.205)" fill="#8da49a"/>
        </g>
        <path id="パス_32" data-name="パス 32" d="M205.481,286.329c-1.637-.9-3.232.1-4.421,1.223a4.418,4.418,0,0,1-.027,2.383c-.656,1.481-2.98,2.829-1.2,4.486.817.761,2.1,1.2,2.52,2.284a1.755,1.755,0,0,1,.073.248l.027,0,.078.008c.154.011.307.018.46.02.02,0,.041,0,.061,0,.137,0,.274,0,.411-.008l.072,0a7.6,7.6,0,0,0,.8-.09,2.277,2.277,0,0,1-1.275-1.344c-.639-1.5.33-3.1,1.234-4.262a6.823,6.823,0,0,0,1.694-4.6A3.371,3.371,0,0,0,205.481,286.329Z" transform="translate(-197.789 -285.979)" fill="#8da49a" opacity="0.37" style="mix-blend-mode: screen;isolation: isolate"/>
      </g>
      <path id="パス_33" data-name="パス 33" d="M184.841,328.81c3.4-4.224,7.332-8.283,11.106-12.443-.094-.037-.148-.149-.044-.227.236-.181.478-.356.723-.525,7.055-7.849,13.387-16.117,14.315-26.588.008-.1.172-.069.169.026-.352,10.088-6.093,18.022-12.76,25.485,7.129-4.052,16.595-5.005,20.729-12.433.029-.052.12-.015.094.038-3.794,7.668-14.184,10.025-21.994,13.691-4.049,4.442-8.339,8.752-11.909,13.288C185.074,329.373,184.64,329.06,184.841,328.81Z" transform="translate(25.695 4.559)" fill="url(#linear-gradient)"/>
      <g id="グループ_113" data-name="グループ 113" transform="translate(187.59 283.57)">
        <g id="グループ_111" data-name="グループ 111">
          <path id="パス_34" data-name="パス 34" d="M181.941,283.279c-.968-1.548-3.141-.593-5.148-.224-2.059.38-5.669-.023-6.77,2.462a3.636,3.636,0,0,0-.183,2.24,4.566,4.566,0,0,0,2.038,4.174c2.065,1.56,5.357,3.512,8.776,2.051,2.019-.861,3.8-2.242,3.083-4.661C183.232,287.633,182.767,284.6,181.941,283.279Z" transform="translate(-169.745 -282.424)" fill="#58674e"/>
          <path id="パス_35" data-name="パス 35" d="M181.344,292.139l.059-.062c.75-.814.992-1.7.193-2.347-.009-.006,0-.017,0-.021.943-.638.3-.692.28-1.275,0-.008.015-.017.015-.017s-.134-1.462-.108-1.615a6.9,6.9,0,0,0,.221-1.045v-.02a3.009,3.009,0,0,0-.5-1.6,1.932,1.932,0,0,0-.419-.47,2.493,2.493,0,0,0-1.72-.3c-.648.065-1.345.192-2.065.339-1.251.257-2.614.549-3.515.7-1.934.324-4.174.749-3.763,3.52a5.6,5.6,0,0,0,.768,1.958c.414.647.971,1.338,1.437,1.969a10.144,10.144,0,0,0,6.419,2.042,8.948,8.948,0,0,0,1.669-.9,7.47,7.47,0,0,0,.982-.817Z" transform="translate(-169.621 -281.947)" fill="#6a8164"/>
          <path id="パス_36" data-name="パス 36" d="M178.678,284.155a13.44,13.44,0,0,0-2.538,1.088,11.251,11.251,0,0,1-3.336.53c-.111.033-.224.061-.33.1a1.655,1.655,0,0,0-1.14,2.237c.187.8,1.044,2.715,2.184,2.532.692-.111,1.093-.814,1.51-1.2.266-.247.866-.837,1.392-.365.426.38-.035.986-.175,1.3-.219.487-.522,1.186.574,1.417a1.427,1.427,0,0,0,1.557-.47,7.052,7.052,0,0,0,1.187-2.666,16.091,16.091,0,0,0,.627-2.846C180.3,284.706,179.852,283.86,178.678,284.155Z" transform="translate(-168.961 -281.552)" fill="#698a6a"/>
        </g>
        <g id="グループ_112" data-name="グループ 112" transform="translate(1.675 0.029)" opacity="0.37" style="mix-blend-mode: screen;isolation: isolate">
          <path id="パス_37" data-name="パス 37" d="M181.366,283.269c-.793-1.269-2.274-.787-4.019-.441-.566.767-.907,1.672-1.826,2.193-1.68.953-5.469-.149-4.527,3.27.434,1.569,1.972,3.1,2.159,4.587a1.907,1.907,0,0,1,.006.321l.044.024.12.064c.242.123.49.236.74.338l.1.04c.225.09.454.17.683.243l.122.038a10.044,10.044,0,0,0,1.368.307,2.979,2.979,0,0,1-1.6-2.152c-.347-2.015,1.873-3.069,3.4-3.949a7.319,7.319,0,0,0,3.465-4.421A3.276,3.276,0,0,0,181.366,283.269Z" transform="translate(-170.846 -282.443)" fill="#2b5714"/>
        </g>
      </g>
      <g id="グループ_115" data-name="グループ 115" transform="translate(184.218 280.228)">
        <g id="グループ_114" data-name="グループ 114">
          <path id="パス_38" data-name="パス 38" d="M175.249,280.356c2.595.726,3.311,4.135,3.6,6.506.3,2.433.67,6.09-1.207,7.416a2.819,2.819,0,0,1-1.672.513c-.79.409-1.867.327-3.313-.513-4.157-2.415-7.021-8.125-3.631-11.416C170.434,281.493,173.036,279.737,175.249,280.356Z" transform="translate(-167.529 -280.228)" fill="#758969"/>
          <path id="パス_39" data-name="パス 39" d="M168.171,286.86l.006-.09c.084-1.176.437-2.153,1.374-2.092.009,0,.014-.011.012-.02-.189-1.205.251-.793.665-1.231a.017.017,0,0,0,0-.024c.082.1,1.14-.986,1.234-1.117a5.009,5.009,0,0,1,.622-.93l.015-.015a2.218,2.218,0,0,1,1.8-.388,2.7,2.7,0,0,1,.823.3,4.436,4.436,0,0,1,1.627,2.041,11.933,11.933,0,0,1,.767,2.532,26.737,26.737,0,0,1,.376,4c.061,2.1-.272,4.168-2.353,4.451a4.273,4.273,0,0,1-1.522-.134c-.53-.148-1.126-.356-1.674-.45a11.3,11.3,0,0,1-3.544-3.669,16.682,16.682,0,0,1-.221-1.8c-.018-.4-.035-.851-.015-1.3Z" transform="translate(-167.2 -279.873)" fill="#87a37f"/>
          <path id="パス_40" data-name="パス 40" d="M174.686,283.164A9.281,9.281,0,0,1,175,286.32c-.03,1.161.452,2.447.549,3.637,0,.12,0,.24-.017.359-.108,1.12-.606,1.618-1.569,1.733-.644.078-2.216.138-2.41-.947a4.847,4.847,0,0,1,.409-1.949c.091-.365.317-1.234-.271-1.44-.475-.166-.726.6-.9.913-.266.481-.625,1.138-1.248.467a1.56,1.56,0,0,1-.385-1.5,9.44,9.44,0,0,1,1.219-2.858,10.435,10.435,0,0,1,1.764-2.435C172.968,281.533,174.212,281.712,174.686,283.164Z" transform="translate(-166.701 -279.379)" fill="#82ac84"/>
        </g>
        <path id="パス_41" data-name="パス 41" d="M174.55,280.351c2.126.595,2.992,2.992,3.394,5.143a4.66,4.66,0,0,0-1.5,2.324c-.33,2.019,1,5.4-1.744,5.405-1.26,0-2.748-.72-3.846-.053a1.656,1.656,0,0,0-.228.177l-.029-.023c-.024-.021-.05-.041-.076-.061-.152-.128-.3-.259-.449-.393l-.056-.055c-.131-.122-.259-.248-.383-.376l-.067-.067c-.245-.257-.475-.525-.694-.8a2.192,2.192,0,0,0,2.065-.155c1.564-.875,1.677-3.293,1.566-5.223a8.807,8.807,0,0,1,1.348-5.958A3.444,3.444,0,0,1,174.55,280.351Z" transform="translate(-166.829 -280.223)" fill="#82ac84" opacity="0.37" style="mix-blend-mode: screen;isolation: isolate"/>
      </g>
      <path id="パス_42" data-name="パス 42" d="M171.372,285.644a.071.071,0,0,1,.14.021,72.17,72.17,0,0,0,.65,22.329c-.288-6.559,2.293-13.375,5.778-18.747.021-.032.079,0,.059.035-3.993,6.887-4.851,13.693-5.247,21.376a55.44,55.44,0,0,0,3.649,10.424c4.638,9.9,11.9,19,12.8,30.09.02.237-.371.275-.383.04-.688-12.465-9.529-22.234-14.139-33.532A55.021,55.021,0,0,1,171.372,285.644Z" transform="translate(18.137 2.798)" fill="url(#linear-gradient-2)"/>
      <path id="パス_43" data-name="パス 43" d="M171.517,284.991l-.037.236a.017.017,0,0,1-.033-.006l.035-.234C171.485,284.965,171.52,284.97,171.517,284.991Z" transform="translate(18.733 2.476)" fill="url(#linear-gradient-3)"/>
      <g id="グループ_118" data-name="グループ 118" transform="translate(165.749 289.455)">
        <g id="グループ_116" data-name="グループ 116">
          <path id="パス_44" data-name="パス 44" d="M167.432,286.568c2.585,1.007,3.167,4.094,4.317,6.76,1.179,2.735,4.993,7.155,2.036,9.094a11.073,11.073,0,0,1-3.442,1.205,18.493,18.493,0,0,1-7.974,2.249c-3.52.058-6.842.373-6.967-6.562-.075-4.1.205-8.989,3.425-10.944C161.074,287,165.227,285.708,167.432,286.568Z" transform="translate(-155.393 -286.291)" fill="#879d78"/>
          <path id="パス_45" data-name="パス 45" d="M156.209,295.522l.036-.175c.482-2.287,1.309-3.88,2.519-3.766.012,0,.021-.017.023-.032.236-1.96.656-1.255,1.389-1.861.011-.008.011-.037.011-.037s1.924-1.249,2.1-1.4a6.965,6.965,0,0,1,1.184-1.035l.026-.015a3.4,3.4,0,0,1,2.372-.189,3.29,3.29,0,0,1,.9.379,5.2,5.2,0,0,1,1.682,2.143c.415.852.793,1.779,1.158,2.738.635,1.668,1.307,3.491,1.811,4.684,1.084,2.564,2.3,4.722-2.515,6.458-1.125.4-2.429.735-3.69,1.077a24.368,24.368,0,0,0-3.852,1.164c-3.141.221-4.856-.992-5.667-3.646a32.807,32.807,0,0,1,.128-3.731c.076-.8.195-1.744.365-2.637Z" transform="translate(-155.24 -285.984)" fill="#98b78f"/>
          <path id="パス_46" data-name="パス 46" d="M166.285,289.389a14.341,14.341,0,0,1,.4,3.681c.038,1.435,1.111,2.951,1.73,4.431.037.154.081.309.1.463.224,1.465-.552,2.252-2.625,3.077-1.383.551-4.766,2.159-5.191.566-.259-.966.472-2.441.752-3.422.18-.629.61-2.056-.359-2.1-.781-.035-1.3,1.335-1.628,1.957-.51.971-1.236,2.473-2.067,1.595a2.671,2.671,0,0,1-.25-2.619,16.342,16.342,0,0,1,2.59-5.172,13.759,13.759,0,0,1,3.29-3.433C164.392,287.5,165.8,287.788,166.285,289.389Z" transform="translate(-154.587 -285.454)" fill="#91c094"/>
        </g>
        <g id="グループ_117" data-name="グループ 117" transform="translate(1.384 0.07)" opacity="0.37" style="mix-blend-mode: screen;isolation: isolate">
          <path id="パス_47" data-name="パス 47" d="M166.957,286.544c2.12.826,2.712,2.942,3.683,5.259-.505.73-1.456,1.345-1.472,2.674-.03,2.435,4.637,5.769-1.478,7.428-2.806.762-6.149,1.018-8.186,3.415a6.041,6.041,0,0,0-.417.569l-.055-.008c-.049-.008-.1-.012-.143-.021a4.679,4.679,0,0,1-.8-.213c-.032-.012-.064-.026-.1-.04a3.591,3.591,0,0,1-.619-.315c-.035-.021-.068-.043-.1-.065a3.948,3.948,0,0,1-.972-.969c.832.065,1.962-.674,3.342-2.07,2.823-2.855,3.068-6.35,3.26-9,.251-3.515,1.654-5.684,3.322-6.846A4.386,4.386,0,0,1,166.957,286.544Z" transform="translate(-156.302 -286.337)" fill="#79b329"/>
        </g>
      </g>
      <g id="グループ_120" data-name="グループ 120" transform="translate(155.592 299.358)">
        <g id="グループ_119" data-name="グループ 119">
          <path id="パス_48" data-name="パス 48" d="M151.043,293.33c-3.159,1.47-2.436,5.35-1.648,8,.81,2.713,2.121,6.773,5.328,7.715a5.262,5.262,0,0,0,2.525.114,5.091,5.091,0,0,0,4.238-1.429c4.439-3.712,5.484-10.651-.755-13.325C158.141,293.294,153.737,292.076,151.043,293.33Z" transform="translate(-148.718 -292.799)" fill="#6f8171"/>
          <path id="パス_49" data-name="パス 49" d="M162.93,298.624l-.052-.094c-.7-1.252-1.663-2.219-2.905-1.905a.023.023,0,0,1-.026-.018c-.345-1.356-.737-.791-1.517-1.158a.023.023,0,0,1-.012-.027,10.454,10.454,0,0,1-2.229-.884,8.416,8.416,0,0,0-1.309-.843l-.027-.012a3.988,3.988,0,0,0-2.64.055,3.431,3.431,0,0,0-.966.54,3.849,3.849,0,0,0-1.193,2.639,10.424,10.424,0,0,0,.221,2.946,26.463,26.463,0,0,0,1.479,4.431c.965,2.295,2.444,4.442,5.408,4.2a6.657,6.657,0,0,0,2-.545c.644-.3,1.35-.685,2.047-.931a10.149,10.149,0,0,0,2.983-4.908,15.9,15.9,0,0,0-.6-2.009,15.114,15.114,0,0,0-.627-1.415Z" transform="translate(-148.036 -292.443)" fill="#889b8c"/>
          <path id="パス_50" data-name="パス 50" d="M151.206,296.432a9.131,9.131,0,0,0,1.146,3.5c.619,1.251.6,2.77,1.064,4.084.065.129.126.26.2.385a2.8,2.8,0,0,0,2.993,1.465c.91-.087,3.074-.435,2.8-1.662-.167-.746-1.045-1.423-1.526-2-.307-.371-1.045-1.252-.348-1.631.56-.3,1.284.464,1.669.753.6.45,1.415,1.068,1.925.176a1.439,1.439,0,0,0-.224-1.724A13.975,13.975,0,0,0,157.832,297a17.8,17.8,0,0,0-3.605-2.173C152.726,294.212,151.13,294.734,151.206,296.432Z" transform="translate(-147.421 -291.87)" fill="#8da49a"/>
        </g>
        <path id="パス_51" data-name="パス 51" d="M151.172,293.154a5.081,5.081,0,0,1,1.572-.02c2.389.347,3.117,2.8,5.162,3.7,1.854.819,3.048,1.123,3.768,3.144,1.491,4.191-2.436,6.717-6.439,5.74a12.713,12.713,0,0,1-5.912-3.591c.831,2.651,2.178,6.063,5.084,6.916a5.263,5.263,0,0,0,2.525.114,5.091,5.091,0,0,0,4.238-1.429c.137-.114.271-.231.4-.353h0c.167-.155.329-.317.485-.479.038-.043.078-.084.116-.126.129-.14.254-.281.376-.428l.073-.087c.145-.177.281-.359.412-.543l.052-.073c.116-.167.227-.336.333-.508l.055-.091a9.994,9.994,0,0,0,.624-1.217l.023-.056c1.464-3.494.682-7.481-3.706-9.362C157.962,293.351,153.884,292.206,151.172,293.154Z" transform="translate(-148.402 -292.798)" fill="#8da49a" opacity="0.29" style="mix-blend-mode: multiply;isolation: isolate"/>
      </g>
      <path id="パス_52" data-name="パス 52" d="M153.925,299.935c9.8,2.506,11.559,12.169,8.539,19.952,1.1-1.79,2.313-3.512,2.624-5.7.438-3.1-.537-6.25-1.274-9.249-1.1-4.5-1.94-8.844,1.631-12.472a.1.1,0,0,1,.164.128c-3.611,5.343-.8,11.214.082,16.893.7,4.466-.676,7.381-3.019,11.089-3.807,6.023-.852,12.332,1.721,18.333,2.225,5.192,4.859,10.2,7.324,15.3.038.081-.088.122-.131.049a121.1,121.1,0,0,1-8.808-17.52c-1.639-4.288-3.4-9.322-1.854-13.807l.027-.072,0-.009.032-.065a12.037,12.037,0,0,1,.723-1.593c3.165-7.825,1.738-17.943-7.846-21.032A.117.117,0,0,1,153.925,299.935Z" transform="translate(9.518 6.368)" fill="url(#linear-gradient-4)"/>
      <g id="グループ_123" data-name="グループ 123" transform="translate(216.988 333.481)">
        <g id="グループ_121" data-name="グループ 121">
          <path id="パス_53" data-name="パス 53" d="M189.477,327.146c-1.519-2,1.479-3.849,3.509-5.859,2.082-2.062,4.185-6.317,8.6-6.054a6.987,6.987,0,0,1,3.377,1.138,6.4,6.4,0,0,1,4.521,4.762c.72,3.231,1.094,8.058-3.561,10.984-2.751,1.73-6.075,2.888-9.039.639C194.815,331.188,190.772,328.854,189.477,327.146Z" transform="translate(-189.063 -315.222)" fill="#525f53"/>
          <path id="パス_54" data-name="パス 54" d="M202.591,331.853c-.044.011-.088.02-.132.029-1.738.347-3.2.084-3.54-1.19,0-.012-.02-.014-.032-.009-1.627.666-1.23-.078-2.054-.452-.011,0-.035.008-.035.008s-2.016-1.023-2.257-1.086a14.053,14.053,0,0,1-1.677-.38l-.03-.011a4.647,4.647,0,0,1-1.946-1.508,2.178,2.178,0,0,1-.368-.747,2.643,2.643,0,0,1,.846-2.091,27.336,27.336,0,0,1,2.027-2.092c1.3-1.237,2.741-2.579,3.628-3.489,1.907-1.957,4.189-4.194,7.893-2.079a8.18,8.18,0,0,1,2.26,2.025c.63.846,1.214,1.879,1.78,2.776a10.3,10.3,0,0,1-1.82,8.358,14.972,14.972,0,0,1-2.544,1.319,13.9,13.9,0,0,1-1.911.6Z" transform="translate(-188.315 -314.869)" fill="#69796d"/>
          <path id="パス_55" data-name="パス 55" d="M192.423,324.185a21.3,21.3,0,0,1,3.462-2.172c1.4-.776,2.188-2.236,3.252-3.392.128-.1.251-.212.387-.309a3.231,3.231,0,0,1,4.086.073c1.018.686,3.15,2.785,2.038,3.943-.676.7-1.99.729-2.858.96-.555.148-1.855.463-1.564,1.331.233.7,1.453.549,2.01.581.867.047,2.1.129,1.624,1.487a2.094,2.094,0,0,1-1.84,1.447,14.757,14.757,0,0,1-4.742-.274,32.818,32.818,0,0,1-4.584-1.006C192.013,326.32,191.122,325.314,192.423,324.185Z" transform="translate(-187.634 -313.971)" fill="#6f827a"/>
        </g>
        <g id="グループ_122" data-name="グループ 122" transform="translate(0.001 2.385)" opacity="0.37" style="mix-blend-mode: screen;isolation: isolate">
          <path id="パス_56" data-name="パス 56" d="M189.477,326.328c-1.245-1.64.552-3,2.353-4.733,1.531-.17,3.1-.009,4.53-.718,2.631-1.3,3.858-6.169,8.1-3.077,1.948,1.42,3.022,4.049,5.031,5.145a3.712,3.712,0,0,0,.46.2l0,.064c0,.056,0,.114,0,.17a9.589,9.589,0,0,1-.061,1.026c0,.044-.011.088-.017.132q-.057.459-.157.905c-.011.053-.023.1-.035.158a10.3,10.3,0,0,1-.574,1.7,3.6,3.6,0,0,0-1.922-3.068c-2.654-1.592-5.833.247-8.242,1.418a14.749,14.749,0,0,1-8.977,1.207A4.665,4.665,0,0,1,189.477,326.328Z" transform="translate(-189.064 -316.79)" fill="#1a4f22"/>
        </g>
      </g>
      <path id="パス_57" data-name="パス 57" d="M189.017,325.62c5.97-3.777,14.177-1.2,19.682-6.028.072-.062.189.053.12.122-3.733,3.712-9.013,3.763-13.988,4.874-4.29.957-7.514,2.9-9.552,6.687-1.455,2.706-1.837,5.76-2.841,8.619a.109.109,0,0,1-.2-.03C182.114,334.708,184.38,328.551,189.017,325.62Z" transform="translate(24.36 20.529)" fill="url(#linear-gradient-5)"/>
      <g id="グループ_125" data-name="グループ 125" transform="translate(157.153 412.613)">
        <g id="グループ_124" data-name="グループ 124">
          <path id="パス_58" data-name="パス 58" d="M151.208,367.63c1.554-1.013,3.7.079,5.106.947,1.438.89,3.569,2.264,3.441,3.791a1.834,1.834,0,0,1-.475,1.073c-.134.578-.662,1.094-1.759,1.473-3.159,1.088-7.507.107-7.755-3.034C149.662,370.574,149.886,368.494,151.208,367.63Z" transform="translate(-149.743 -367.222)" fill="#758969"/>
          <path id="パス_59" data-name="パス 59" d="M151.551,373.693l-.046-.041c-.593-.546-.96-1.144-.508-1.6l0-.014c-.732-.422-.312-.469-.362-.867a.013.013,0,0,0-.014-.011c.091,0-.018-1-.047-1.108a3.209,3.209,0,0,1-.219-.717l0-.014a1.449,1.449,0,0,1,.6-1.086,1.86,1.86,0,0,1,.528-.292,3.253,3.253,0,0,1,1.825.041,8.725,8.725,0,0,1,1.7.692,18.932,18.932,0,0,1,2.315,1.52c1.157.87,2.115,1.924,1.336,3.107a2.94,2.94,0,0,1-.753.72c-.318.207-.7.422-.994.662a8.275,8.275,0,0,1-3.556.239,11.808,11.808,0,0,1-1.065-.657c-.221-.161-.472-.347-.706-.551Z" transform="translate(-149.428 -366.904)" fill="#87a37f"/>
          <path id="パス_60" data-name="パス 60" d="M152.624,368.472a6.532,6.532,0,0,1,1.835,1.19c.609.513,1.516.817,2.2,1.277.064.053.128.1.186.163a1.058,1.058,0,0,1,.228,1.543c-.247.362-.919,1.19-1.589.826-.406-.222-.621-.726-.863-1.044-.155-.2-.52-.691-.895-.478-.3.17,0,.628.088.848.14.342.332.808-.307.837a1.112,1.112,0,0,1-.977-.444,6.238,6.238,0,0,1-.988-1.844,6.691,6.691,0,0,1-.517-1.945C150.979,368.651,151.631,368.093,152.624,368.472Z" transform="translate(-149.077 -366.634)" fill="#82ac84"/>
        </g>
        <path id="パス_61" data-name="パス 61" d="M151.009,367.588a1.807,1.807,0,0,0-.348.65c-.307,1.065.991,1.867,1.088,2.9.088.939.012,1.5,1.059,2.21,2.17,1.476,4.514.356,4.794-1.508a4.821,4.821,0,0,0-.864-3.191c1.4.886,3.133,2.143,3.018,3.526a1.834,1.834,0,0,1-.475,1.073c-.134.578-.662,1.094-1.759,1.473-.1.033-.2.064-.3.094h0c-.128.038-.257.072-.39.1l-.1.023c-.111.026-.222.049-.335.069l-.067.014c-.137.023-.274.044-.412.061l-.053.006c-.125.014-.25.026-.374.035l-.065,0a8.524,8.524,0,0,1-.858.011l-.038,0c-2.389-.1-4.591-1.243-4.766-3.453C149.668,370.453,149.864,368.524,151.009,367.588Z" transform="translate(-149.743 -367.032)" fill="#82ac84" opacity="0.29" style="mix-blend-mode: multiply;isolation: isolate"/>
      </g>
      <g id="グループ_127" data-name="グループ 127" transform="translate(162.452 407.645)">
        <g id="グループ_126" data-name="グループ 126">
          <path id="パス_62" data-name="パス 62" d="M159.91,364.09c-2.633-.665-4.246,1.318-5.171,2.792-.95,1.511-2.31,3.817-.918,5.55a4.016,4.016,0,0,0,1.427,1.091,4.744,4.744,0,0,0,3.246,1.131c4.564.222,8.823-2.359,6.554-6.1C164.107,367.006,162.153,364.658,159.91,364.09Z" transform="translate(-153.226 -363.958)" fill="#859986"/>
          <path id="パス_63" data-name="パス 63" d="M163.969,371.371l.02-.062c.245-.832.184-1.651-.711-2.027a.013.013,0,0,1-.006-.02c.508-.73-.017-.647-.285-1.128a.012.012,0,0,1,.008-.018,6,6,0,0,1-.848-1.3,4.3,4.3,0,0,0-.329-.907l-.009-.017a3.174,3.174,0,0,0-1.583-1.067,3.152,3.152,0,0,0-2.943.488,6.63,6.63,0,0,0-1.417,1.37,13.693,13.693,0,0,0-1.456,2.535c-.638,1.4-.895,2.939.975,4.059a6.292,6.292,0,0,0,1.464.587c.537.135,1.154.262,1.694.443a9.763,9.763,0,0,0,4.334-.9,8.514,8.514,0,0,0,.7-1.118,7.343,7.343,0,0,0,.374-.875Z" transform="translate(-152.854 -363.594)" fill="#9db3a2"/>
          <path id="パス_64" data-name="パス 64" d="M157.761,365.729a4.777,4.777,0,0,0-1.166,1.992,18.772,18.772,0,0,1-1.519,2.214c-.029.082-.062.164-.084.25-.207.807.122,1.363.992,1.872.581.339,2.039,1.082,2.522.435.292-.393.132-1.05.155-1.5.014-.288.043-.975.65-.852.49.1.514.732.589,1.017.116.444.271,1.048,1.039.872a.88.88,0,0,0,.775-.841,6.507,6.507,0,0,0-.353-2.473,9.083,9.083,0,0,0-.982-2.433A1.735,1.735,0,0,0,157.761,365.729Z" transform="translate(-152.335 -363.242)" fill="#a2bcb1"/>
        </g>
        <path id="パス_65" data-name="パス 65" d="M160.263,364.116a4.06,4.06,0,0,1,.936.641c1.224,1.138.367,2.5,1.1,3.738.66,1.121,1.2,1.747.566,2.92-1.324,2.436-4.962,1.911-6.805-.166a6.547,6.547,0,0,1-1.593-4c-.905,1.493-1.9,3.53-.642,5.1a4.016,4.016,0,0,0,1.427,1.091,4.745,4.745,0,0,0,3.246,1.131c.142.008.282.012.422.014h0c.181,0,.359,0,.539-.009l.134-.006c.149-.008.3-.018.446-.03l.088-.008c.178-.018.355-.04.528-.065l.068-.011c.157-.024.31-.052.464-.084l.081-.017a9.351,9.351,0,0,0,1.006-.271l.043-.015c2.7-.912,4.332-2.966,2.736-5.594C164.157,367.006,162.357,364.825,160.263,364.116Z" transform="translate(-153.226 -363.876)" fill="#a2bcb1" opacity="0.29" style="mix-blend-mode: multiply;isolation: isolate"/>
      </g>
      <path id="パス_66" data-name="パス 66" d="M152.751,372.452a46.832,46.832,0,0,1,13.318,8.35c-2.954-4.081-4.931-8.841-4.454-13.233.011-.1.221-.151.245-.023.589,3.075.835,6.084,2.155,9.064a26.718,26.718,0,0,0,2.9,4.972,38.122,38.122,0,0,1,10.374,16.109c1.994,6.364.805,12.793,2.255,19.2,1.618,7.151,5.784,13.413,8.686,20.224.032.075-.1.117-.151.049a62.961,62.961,0,0,1-8.513-17.646c-1.913-6.387-.909-12.833-2.293-19.246-2.525-11.687-11.925-22.012-24.621-27.681C152.543,372.537,152.639,372.4,152.751,372.452Z" transform="translate(8.902 45.519)" fill="url(#linear-gradient-6)"/>
      <g id="グループ_129" data-name="グループ 129" transform="translate(138.03 352.327)">
        <g id="グループ_128" data-name="グループ 128">
          <path id="パス_67" data-name="パス 67" d="M137.3,331.112c.791-3.371,5.039-3.605,8.006-3.48,3.042.126,7.618.412,9.373,3.254a4.773,4.773,0,0,1,.72,2.386,4.661,4.661,0,0,1-.49,4.392c-2.841,5.128-9.879,7.781-14.174,2.453C138.95,337.9,136.621,333.985,137.3,331.112Z" transform="translate(-137.177 -327.607)" fill="#5e6e55"/>
          <path id="パス_68" data-name="パス 68" d="M145.771,341.172l-.111-.026c-1.482-.371-2.725-1.062-2.694-2.324a.023.023,0,0,0-.024-.021c-1.507-.008-1.007-.514-1.578-1.173a.024.024,0,0,0-.032-.006,10.011,10.011,0,0,0-1.459-1.919,8.681,8.681,0,0,1-1.2-1.05l-.02-.024a3.611,3.611,0,0,1-.571-2.537,3.16,3.16,0,0,1,.338-1.053,4.234,4.234,0,0,1,2.487-1.77,12.317,12.317,0,0,1,3.145-.49,30.961,30.961,0,0,1,5.007.358c2.64.376,5.249,1.278,5.7,4.168a6.073,6.073,0,0,1-.1,2.041,22.141,22.141,0,0,0-.49,2.179,10.868,10.868,0,0,1-4.444,4.02,18.929,18.929,0,0,1-2.251-.093c-.5-.061-1.068-.137-1.637-.263Z" transform="translate(-136.723 -326.999)" fill="#71886a"/>
          <path id="パス_69" data-name="パス 69" d="M140.807,330.228a10.688,10.688,0,0,1,3.95.262c1.461.294,3.054-.082,4.544.044.151.032.3.059.452.1A2.749,2.749,0,0,1,152,333.145c.128.892.277,3.043-1.077,3.072a6.785,6.785,0,0,1-2.468-.98c-.463-.205-1.564-.7-1.8.053-.186.609.793,1.118,1.188,1.418.616.466,1.459,1.1.645,1.8a1.677,1.677,0,0,1-1.866.2,14.744,14.744,0,0,1-3.645-2.278,17.841,17.841,0,0,1-3.142-2.928C138.838,332.209,139.005,330.56,140.807,330.228Z" transform="translate(-136.107 -326.289)" fill="#6e9170"/>
        </g>
        <path id="パス_70" data-name="パス 70" d="M137.294,331.108c.648-2.764,3.619-3.418,6.3-3.5.9.945,1.6,2.063,2.99,2.549,2.55.887,6.74-.187,6.872,3.547.059,1.714-.779,3.579.111,5.217a3.113,3.113,0,0,0,.231.347l-.027.035-.073.091q-.228.269-.473.523c-.021.023-.043.044-.064.065-.148.152-.3.3-.455.44l-.082.076a11.138,11.138,0,0,1-.972.77,3.321,3.321,0,0,0-.291-2.843c-1.173-2.318-4.215-3-6.635-3.264a12.444,12.444,0,0,1-7.546-3.13A4.546,4.546,0,0,1,137.294,331.108Z" transform="translate(-137.174 -327.604)" fill="#6e9170" opacity="0.37" style="mix-blend-mode: screen;isolation: isolate"/>
      </g>
      <path id="パス_71" data-name="パス 71" d="M141.361,331.2a33.6,33.6,0,0,1,16.321,18.67c1.659,4.81,2.34,9.876,4.456,14.554,2.4,5.3,6.352,9.688,9.383,14.633a.189.189,0,0,1-.31.216,57.349,57.349,0,0,1-12.556-23.749c-2.637-10.343-7.749-18.4-17.385-24.184C141.186,331.293,141.273,331.158,141.361,331.2Z" transform="translate(2.97 26.592)" fill="url(#linear-gradient-7)"/>
      <g id="グループ_131" data-name="グループ 131" transform="translate(181.774 467.22)">
        <g id="グループ_130" data-name="グループ 130" transform="translate(0)">
          <path id="パス_72" data-name="パス 72" d="M168.883,403.127c-1.251-.221-1.954,1.376-2.35,2.535-.4,1.188-.982,2.99-.285,4.106a1.74,1.74,0,0,0,.7.648,1.555,1.555,0,0,0,1.549.495,3.617,3.617,0,0,0,2.91-5.064C170.924,404.818,169.948,403.314,168.883,403.127Z" transform="translate(-165.923 -403.106)" fill="#6f8171"/>
          <path id="パス_73" data-name="パス 73" d="M170.976,407.975l.008-.047c.093-.627.043-1.213-.387-1.4l0-.014c.219-.58-.024-.466-.163-.788l0-.012a4.294,4.294,0,0,1-.431-.86,3.711,3.711,0,0,0-.177-.624l0-.011a1.289,1.289,0,0,0-.77-.613,1.027,1.027,0,0,0-.4-.035,1.6,1.6,0,0,0-.96.68,5.444,5.444,0,0,0-.628,1.132,14.233,14.233,0,0,0-.616,1.98c-.262,1.073-.342,2.216.563,2.838a1.974,1.974,0,0,0,.7.28,7.559,7.559,0,0,1,.805.151,3.934,3.934,0,0,0,2.006-1.082,8.57,8.57,0,0,0,.3-.88c.053-.2.111-.431.152-.67Z" transform="translate(-165.742 -402.865)" fill="#889b8c"/>
          <path id="パス_74" data-name="パス 74" d="M167.932,404.458a4.911,4.911,0,0,0-.495,1.558,18.69,18.69,0,0,1-.653,1.752c-.012.064-.024.126-.033.19a1.159,1.159,0,0,0,.514,1.255c.28.187.982.578,1.192.064a3.219,3.219,0,0,0,.033-1.1c0-.21-.006-.709.282-.68.233.023.26.478.3.676.065.31.154.732.508.528a.737.737,0,0,0,.341-.686,6.753,6.753,0,0,0-.228-1.755,7.889,7.889,0,0,0-.523-1.662C168.888,404.009,168.308,403.817,167.932,404.458Z" transform="translate(-165.5 -402.61)" fill="#8da49a"/>
        </g>
        <path id="パス_75" data-name="パス 75" d="M169.05,403.148a1.647,1.647,0,0,1,.455.37c.6.7.237,1.773.61,2.595a2.431,2.431,0,0,1,.342,2.057c-.557,1.895-2.275,1.876-3.191.557a5.567,5.567,0,0,1-.851-2.736c-.385,1.172-.8,2.745-.167,3.756a1.739,1.739,0,0,0,.7.648,1.555,1.555,0,0,0,1.549.495c.065-.009.132-.02.2-.033h0c.084-.015.167-.037.251-.059l.062-.018c.07-.02.14-.041.208-.065l.041-.015c.084-.03.164-.064.247-.1l.03-.015c.073-.033.145-.068.216-.107l.037-.02a3.984,3.984,0,0,0,.464-.3l.02-.015a3.439,3.439,0,0,0,1.135-4.32C170.95,404.851,170.05,403.452,169.05,403.148Z" transform="translate(-165.923 -403.085)" fill="#8da49a" opacity="0.29" style="mix-blend-mode: multiply;isolation: isolate"/>
      </g>
      <path id="パス_76" data-name="パス 76" d="M167.618,404.286c.828,3.707-.055,7.254.446,10.954a39.89,39.89,0,0,0,3.421,10.84c2.438,5.39,7.338,12.319,5.962,18.1-.018.076-.132.027-.134-.044-.19-7.294-4.682-13.711-7.38-20.6a32.772,32.772,0,0,1-2.249-9.062c-.3-3.426.3-6.734-.2-10.176C167.472,404.208,167.6,404.2,167.618,404.286Z" transform="translate(16.665 64.697)" fill="url(#linear-gradient-8)"/>
      <g id="グループ_133" data-name="グループ 133" transform="translate(179.599 365.675)">
        <g id="グループ_132" data-name="グループ 132">
          <path id="パス_77" data-name="パス 77" d="M177.553,336.95c2.937,1.452,2.272,5.037,1.543,7.473-.749,2.5-1.96,6.235-4.937,7.023a8.978,8.978,0,0,1-6.286-1.4c-4.129-3.567-5.109-10.041.683-12.357C170.96,336.725,175.049,335.713,177.553,336.95Z" transform="translate(-164.493 -336.378)" fill="#8ba17c"/>
          <path id="パス_78" data-name="パス 78" d="M165.807,341.534l.049-.087c.648-1.144,1.542-2.015,2.7-1.691a.019.019,0,0,0,.023-.017c.32-1.249.683-.715,1.408-1.035a.019.019,0,0,0,.012-.024,9.48,9.48,0,0,0,2.068-.762,7.629,7.629,0,0,1,1.214-.747l.026-.011a3.715,3.715,0,0,1,2.453.122,3.3,3.3,0,0,1,.9.528,3.7,3.7,0,0,1,1.111,2.483,9.6,9.6,0,0,1-.2,2.73A23.88,23.88,0,0,1,176.2,347.1c-.893,2.108-2.264,4.062-5.017,3.759a6.327,6.327,0,0,1-1.857-.56c-.6-.3-1.255-.671-1.9-.919a9.822,9.822,0,0,1-2.779-4.64,15.036,15.036,0,0,1,.552-1.849,14.043,14.043,0,0,1,.581-1.3Z" transform="translate(-164.415 -336.05)" fill="#9bbb91"/>
          <path id="パス_79" data-name="パス 79" d="M175.409,339.8a8.274,8.274,0,0,1-1.059,3.222c-.574,1.144-.557,2.557-.982,3.766-.061.117-.119.237-.187.352a2.516,2.516,0,0,1-2.777,1.28c-.846-.1-2.856-.487-2.6-1.619.155-.686.969-1.293,1.414-1.82.286-.336.969-1.135.323-1.5-.52-.3-1.193.4-1.551.654-.557.4-1.313.954-1.787.113a1.326,1.326,0,0,1,.2-1.6,12.418,12.418,0,0,1,2.852-2.494,15.955,15.955,0,0,1,3.346-1.922C173.994,337.693,175.477,338.221,175.409,339.8Z" transform="translate(-163.7 -335.518)" fill="#95c498"/>
        </g>
        <path id="パス_80" data-name="パス 80" d="M177.139,336.775a4.78,4.78,0,0,0-1.461-.061c-2.219.26-2.891,2.514-4.789,3.3-1.721.711-2.83.96-3.5,2.818-1.379,3.855,2.272,6.3,5.99,5.506a11.36,11.36,0,0,0,5.486-3.177c-.767,2.441-2.015,5.573-4.711,6.288a8.978,8.978,0,0,1-6.286-1.4c-.126-.11-.251-.222-.373-.338h0c-.155-.149-.3-.3-.45-.46-.037-.04-.073-.079-.108-.12-.12-.132-.237-.268-.35-.406-.023-.029-.046-.055-.068-.084q-.2-.253-.383-.516l-.047-.068c-.11-.158-.213-.32-.31-.482l-.052-.085a9.447,9.447,0,0,1-.581-1.147l-.021-.053c-1.365-3.284-.645-6.968,3.428-8.6C170.832,336.776,174.618,335.822,177.139,336.775Z" transform="translate(-164.492 -336.377)" fill="#95c498" opacity="0.29" style="mix-blend-mode: multiply;isolation: isolate"/>
      </g>
      <path id="パス_81" data-name="パス 81" d="M173.241,339.769c.062-.059.172.023.11.085-11.477,11.4-9.566,28.388-1.586,41.316,3.036,4.917,7.63,9.4,9.2,14.992,1.712,6.105-.348,12.622-2.668,18.244-.049.12-.272.061-.234-.067,2.444-8.3,4.514-15.569-.487-23.592-3.6-5.772-7.881-10.73-10.328-17.115C162.8,362.031,163.841,348.682,173.241,339.769Z" transform="translate(15.219 31.056)" fill="url(#linear-gradient-9)"/>
      <g id="グループ_135" data-name="グループ 135" transform="translate(229.044 319.039)">
        <g id="グループ_134" data-name="グループ 134">
          <path id="パス_82" data-name="パス 82" d="M206.048,306.144c-2.356-1.3-4.635.744-6.06,2.315-1.462,1.612-3.607,4.083-2.844,6.41a3.679,3.679,0,0,0,1.021,1.57,3.871,3.871,0,0,0,2.794,1.968c4.409,1.143,9.5-1.1,8.577-5.97C209.153,310.413,208.056,307.251,206.048,306.144Z" transform="translate(-196.985 -305.732)" fill="#768162"/>
          <path id="パス_83" data-name="パス 83" d="M207.435,315.585l.041-.071c.533-.94.759-1.922.011-2.541a.017.017,0,0,1,0-.024c.756-.768.21-.772.116-1.394a.017.017,0,0,1,.012-.02,6.989,6.989,0,0,1-.376-1.71,5.706,5.706,0,0,0,0-1.14l0-.021a2.831,2.831,0,0,0-1.182-1.57,2.732,2.732,0,0,0-.782-.361,3.336,3.336,0,0,0-2.281.373,8.542,8.542,0,0,0-1.872,1.351,20.293,20.293,0,0,0-2.319,2.727c-1.115,1.532-1.908,3.314-.461,5a5.03,5.03,0,0,0,1.233.98c.481.265,1.044.533,1.511.851a8.816,8.816,0,0,0,4.574-.23,12.45,12.45,0,0,0,1.082-1.191,11.4,11.4,0,0,0,.674-.965Z" transform="translate(-196.692 -305.247)" fill="#899b78"/>
          <path id="パス_84" data-name="パス 84" d="M203.153,307.781a7.059,7.059,0,0,0-1.841,2.141,27.26,27.26,0,0,1-2.267,2.333c-.058.093-.119.184-.17.282a1.9,1.9,0,0,0,.321,2.412c.452.514,1.625,1.675,2.325,1,.425-.409.5-1.22.677-1.75.114-.339.384-1.15.937-.887.447.213.248.968.222,1.321-.04.548-.1,1.3.717,1.234a1.156,1.156,0,0,0,1.056-.849,9.532,9.532,0,0,0,.519-3,11.964,11.964,0,0,0-.113-3.076C205.3,307.781,204.255,307.032,203.153,307.781Z" transform="translate(-196.152 -304.82)" fill="#83a47b"/>
        </g>
        <path id="パス_85" data-name="パス 85" d="M205.488,306.144c-1.931-1.064-3.809.116-5.209,1.441a5.207,5.207,0,0,1-.032,2.808c-.773,1.745-3.509,3.333-1.411,5.285.963.9,2.468,1.411,2.969,2.69a1.979,1.979,0,0,1,.085.292l.033,0c.03,0,.059.006.09.008.181.014.362.021.543.024.023,0,.047,0,.07,0,.163,0,.324,0,.485-.009l.084,0a8.635,8.635,0,0,0,.939-.107,2.682,2.682,0,0,1-1.5-1.583c-.753-1.765.39-3.655,1.455-5.022a8.027,8.027,0,0,0,1.993-5.418A3.985,3.985,0,0,0,205.488,306.144Z" transform="translate(-196.425 -305.732)" fill="#83a47b" opacity="0.37" style="mix-blend-mode: screen;isolation: isolate"/>
      </g>
      <path id="パス_86" data-name="パス 86" d="M204.48,308.807c.029-.049.113-.014.085.037a78.954,78.954,0,0,0-3.876,8.421c-1.131,2.87-1.764,5.911-2.977,8.74-.03.072-.139.034-.132-.038C198.108,320.019,201.455,313.89,204.48,308.807Z" transform="translate(32.369 14.899)" fill="url(#linear-gradient-10)"/>
      <g id="グループ_138" data-name="グループ 138" transform="translate(234.579 400.037)">
        <g id="グループ_136" data-name="グループ 136">
          <path id="パス_87" data-name="パス 87" d="M208.042,359.484c-2.421,1.1-3.08,3.52-4.246,5.7-1.2,2.231-4.885,6.083-2.238,7.18a10.271,10.271,0,0,0,3.121.475,17.91,17.91,0,0,0,7.253.691c3.24-.406,6.285-.592,6.677-5.885.233-3.127.17-6.813-2.716-7.889C213.879,359,210.107,358.548,208.042,359.484Z" transform="translate(-200.623 -358.958)" fill="#899571"/>
          <path id="パス_88" data-name="パス 88" d="M217.13,364.888c-.009-.043-.018-.087-.026-.128-.353-1.678-1.05-2.785-2.17-2.543-.011,0-.018-.011-.02-.021-.138-1.461-.554-.87-1.205-1.237-.008-.006-.008-.027-.008-.027s-1.721-.7-1.878-.8a4.834,4.834,0,0,0-1.048-.635l-.023-.008a3.751,3.751,0,0,0-2.178.158,4.164,4.164,0,0,0-.843.4A5.5,5.5,0,0,0,206.1,361.9c-.417.7-.8,1.453-1.176,2.231-.651,1.35-1.344,2.823-1.855,3.8-1.1,2.089-2.31,3.888,2.059,4.591,1.018.164,2.207.248,3.354.345a23.6,23.6,0,0,1,3.5.394c2.884-.234,4.512-1.377,5.366-3.5a20.672,20.672,0,0,0,.03-2.823,16.718,16.718,0,0,0-.231-1.96Z" transform="translate(-199.886 -358.734)" fill="#9aaf88"/>
          <path id="パス_89" data-name="パス 89" d="M206.449,361.578a9.841,9.841,0,0,0-.511,2.852c-.093,1.1-1.141,2.386-1.771,3.593-.04.122-.085.245-.114.365-.265,1.143.42,1.642,2.295,2,1.252.243,4.3,1.033,4.757-.234.277-.767-.336-1.8-.555-2.508-.14-.455-.479-1.484.415-1.642.721-.128,1.146.848,1.421,1.28.429.674,1.039,1.723,1.838.948a1.871,1.871,0,0,0,.336-2.024,9.146,9.146,0,0,0-2.179-3.6,8.856,8.856,0,0,0-2.893-2.191A2.187,2.187,0,0,0,206.449,361.578Z" transform="translate(-198.862 -358.313)" fill="#93b88a"/>
        </g>
        <g id="グループ_137" data-name="グループ 137" transform="translate(3.328 0.275)" opacity="0.37" style="mix-blend-mode: screen;isolation: isolate">
          <path id="パス_90" data-name="パス 90" d="M206.9,359.39c-1.984.9-2.614,2.585-3.6,4.472.434.492,1.286.837,1.248,1.846-.07,1.849-4.5,4.984,1.062,5.462,2.554.221,5.621-.014,7.4,1.549a3.65,3.65,0,0,1,.361.379l.05-.011.134-.035a6,6,0,0,0,.743-.265c.032-.014.061-.029.091-.043a4.752,4.752,0,0,0,.583-.318c.032-.021.064-.041.1-.064A4.413,4.413,0,0,0,216,371.5c-.768.158-1.779-.26-2.995-1.146-2.485-1.809-2.572-4.437-2.64-6.432-.091-2.642-1.3-4.113-2.786-4.783A5.623,5.623,0,0,0,206.9,359.39Z" transform="translate(-202.81 -359.139)" fill="#95ab26"/>
        </g>
      </g>
      <path id="パス_91" data-name="パス 91" d="M191.411,386.29a67.87,67.87,0,0,1,7.922-9.663,47.847,47.847,0,0,1,21-11.424c.038-.009.059.052.021.064a54.074,54.074,0,0,0-21.232,12.139c-3.231,3.071-5.5,6.735-7.976,10.35a43.98,43.98,0,0,1-8.567,9.232c-.073.061-.192-.04-.128-.114C185.458,393.365,188.707,390.028,191.411,386.29Z" transform="translate(24.468 44.336)" fill="url(#linear-gradient-11)"/>
      <g id="グループ_140" data-name="グループ 140" transform="translate(208.888 354.766)">
        <g id="グループ_139" data-name="グループ 139">
          <path id="パス_92" data-name="パス 92" d="M193.128,329.75c-2.111-1.438-4.479.3-5.988,1.657-1.546,1.4-3.827,3.552-3.33,5.822a3.459,3.459,0,0,0,.816,1.58,3.654,3.654,0,0,0,2.464,2.112c4.078,1.473,9.138-.2,8.738-4.9C195.661,334.071,194.928,330.977,193.128,329.75Z" transform="translate(-183.74 -329.209)" fill="#768162"/>
          <path id="パス_93" data-name="パス 93" d="M193.5,338.832l.046-.062c.6-.845.91-1.755.26-2.409-.008-.006,0-.017,0-.021.794-.663.274-.714.247-1.312a.014.014,0,0,1,.014-.017,6.631,6.631,0,0,1-.19-1.656,5.378,5.378,0,0,0,.107-1.08l0-.02a2.657,2.657,0,0,0-.971-1.593,2.532,2.532,0,0,0-.708-.411,3.21,3.21,0,0,0-2.205.151,8.286,8.286,0,0,0-1.913,1.115,19.835,19.835,0,0,0-2.47,2.379c-1.211,1.354-2.14,2.972-.928,4.7a4.711,4.711,0,0,0,1.074,1.038c.432.292.94.6,1.353.939a8.445,8.445,0,0,0,4.372.187,12.237,12.237,0,0,0,1.146-1.035,11.1,11.1,0,0,0,.735-.854Z" transform="translate(-183.488 -328.735)" fill="#899b78"/>
          <path id="パス_94" data-name="パス 94" d="M190.146,331.106a6.828,6.828,0,0,0-1.962,1.866,26.4,26.4,0,0,1-2.385,2.01c-.064.082-.131.164-.189.251a1.805,1.805,0,0,0,.068,2.315c.379.528,1.38,1.732,2.112,1.155.444-.35.592-1.111.816-1.6.141-.312.476-1.056.978-.756.4.24.142.939.082,1.269-.093.517-.222,1.22.56,1.234a1.119,1.119,0,0,0,1.087-.711,9.138,9.138,0,0,0,.788-2.8,11.3,11.3,0,0,0,.193-2.925C192.183,331.294,191.266,330.492,190.146,331.106Z" transform="translate(-182.966 -328.331)" fill="#83a47b"/>
        </g>
        <path id="パス_95" data-name="パス 95" d="M193.4,329.705a3.386,3.386,0,0,1,.569.953c.61,1.575-.787,2.835-.674,4.383.1,1.4.32,2.235-.793,3.348-2.305,2.307-5.4.75-6.155-2.018a8.113,8.113,0,0,1,.338-4.806c-1.5,1.389-3.328,3.349-2.878,5.407a3.46,3.46,0,0,0,.816,1.58,3.654,3.654,0,0,0,2.464,2.112c.126.046.253.087.38.126h0c.164.052.33.1.5.137l.126.029c.14.032.28.061.422.087l.085.015c.17.029.342.053.513.072l.067.006c.155.017.309.027.463.035l.081,0a8.512,8.512,0,0,0,1.044-.024l.046,0c2.878-.271,5.3-2.076,5.016-5.381C195.67,333.916,195,331.046,193.4,329.705Z" transform="translate(-183.74 -328.951)" fill="#83a47b" opacity="0.29" style="mix-blend-mode: multiply;isolation: isolate"/>
      </g>
      <g id="グループ_143" data-name="グループ 143" transform="translate(191.175 336.775)">
        <g id="グループ_141" data-name="グループ 141">
          <path id="パス_96" data-name="パス 96" d="M176.012,317.847c1.374-1.35,3.3.584,5.212,1.8,1.962,1.245,5.679,2.229,6.133,5.451a7.325,7.325,0,0,1-3.534,6.449c-2.474.925-6.279,1.8-9.319-1.192-1.8-1.771-3.222-4.025-1.867-6.451C173.582,322.211,174.842,319,176.012,317.847Z" transform="translate(-172.1 -317.387)" fill="#575f48"/>
          <path id="パス_97" data-name="パス 97" d="M173.519,327.932l-.043-.093c-.539-1.211-.548-2.3.42-2.706.009,0,.008-.017,0-.026-.778-1.091-.123-.9.053-1.54,0-.009-.012-.024-.012-.024s.516-1.586.53-1.767a9.61,9.61,0,0,1,.053-1.26l0-.023a3.239,3.239,0,0,1,.915-1.6,1.744,1.744,0,0,1,.542-.361,2.37,2.37,0,0,1,1.8.349c.632.332,1.3.75,1.978,1.2,1.184.787,2.473,1.656,3.334,2.182,1.852,1.131,3.982,2.5,2.847,5.44a5.823,5.823,0,0,1-1.281,1.888c-.581.562-1.321,1.112-1.952,1.634a9.232,9.232,0,0,1-6.958-.263,11.365,11.365,0,0,1-1.435-1.672,9.972,9.972,0,0,1-.77-1.306Z" transform="translate(-171.573 -316.822)" fill="#6a795d"/>
          <path id="パス_98" data-name="パス 98" d="M176.715,319.737a16.623,16.623,0,0,1,2.255,2.228,12.444,12.444,0,0,0,3.2,1.922c.1.081.207.155.306.24a2.222,2.222,0,0,1,.554,2.961c-.4.822-1.755,2.625-2.847,1.968-.663-.4-.881-1.347-1.2-1.943-.2-.382-.648-1.281-1.3-.963-.525.257-.222,1.118-.163,1.525.091.633.212,1.537-.945,1.36a1.678,1.678,0,0,1-1.435-1.147,9.84,9.84,0,0,1-.492-3.459,21.686,21.686,0,0,1,.116-3.438C174.945,319.708,175.616,318.938,176.715,319.737Z" transform="translate(-170.777 -316.331)" fill="#698262"/>
        </g>
        <g id="グループ_142" data-name="グループ 142" transform="translate(3.559 0.006)" opacity="0.37" style="mix-blend-mode: screen;isolation: isolate">
          <path id="パス_99" data-name="パス 99" d="M174.792,317.845c1.126-1.106,2.482.023,4.138,1.1a9,9,0,0,0,1.255,3.182c1.433,1.736,5.512,2.01,3.677,5.466-.845,1.586-2.785,2.692-3.36,4.281a2.2,2.2,0,0,0-.09.358l-.052.011-.135.023c-.275.041-.552.07-.829.085l-.11,0c-.25.011-.5.011-.747,0-.044,0-.088,0-.131-.006a9.189,9.189,0,0,1-1.45-.2,2.8,2.8,0,0,0,2.166-1.774c.875-2.118-1.073-4.183-2.371-5.777a10.227,10.227,0,0,1-2.313-6.332A3.412,3.412,0,0,1,174.792,317.845Z" transform="translate(-174.439 -317.391)" fill="#364f12"/>
        </g>
      </g>
      <g id="グループ_146" data-name="グループ 146" transform="translate(211.65 312.751)">
        <g id="グループ_144" data-name="グループ 144" transform="translate(0 0.001)">
          <path id="パス_100" data-name="パス 100" d="M196.12,301.607c-2.57.172-3.944,2.742-5.7,4.783-1.8,2.092-6.411,4.944-4.334,7.484a10.294,10.294,0,0,0,2.712,2.024,17.144,17.144,0,0,0,6.434,4.211c3.1,1.032,5.952,2.234,7.994-3.87,1.205-3.608,2.318-8.015.012-10.643C201.626,303.762,198.312,301.46,196.12,301.607Z" transform="translate(-185.555 -301.601)" fill="#899571"/>
          <path id="パス_101" data-name="パス 101" d="M202.633,312.525c.006-.055.012-.111.017-.166.21-2.158-.078-3.8-1.181-4.034-.011,0-.015-.021-.012-.035.338-1.8-.231-1.293-.712-2.033a.071.071,0,0,1,0-.037s-1.354-1.64-1.467-1.828a6.468,6.468,0,0,0-.761-1.246l-.018-.02a3.161,3.161,0,0,0-2.048-.828,3.1,3.1,0,0,0-.9.085,4.836,4.836,0,0,0-2.086,1.43c-.6.638-1.2,1.353-1.787,2.1-1.026,1.3-2.129,2.727-2.907,3.643-1.672,1.969-3.354,3.54.431,6.417.883.671,1.945,1.327,2.967,1.98a22.739,22.739,0,0,1,3.085,2.1c2.719,1.07,4.576.475,6.032-1.65a30.664,30.664,0,0,0,.925-3.34c.155-.73.314-1.6.411-2.436Z" transform="translate(-184.846 -301.238)" fill="#9aaf88"/>
          <path id="パス_102" data-name="パス 102" d="M193.61,304.106a13.33,13.33,0,0,0-1.376,3.149c-.432,1.26-1.8,2.3-2.765,3.442-.075.126-.157.251-.221.38-.606,1.234-.137,2.147,1.469,3.454,1.071.874,3.619,3.238,4.437,1.946.5-.784.262-2.292.286-3.24.017-.606.033-1.989.9-1.758.7.186.781,1.543.9,2.185.181,1,.406,2.534,1.386,1.986a2.483,2.483,0,0,0,.95-2.249,15.178,15.178,0,0,0-.855-5.3,12.767,12.767,0,0,0-1.955-3.957C195.812,302.959,194.483,302.823,193.61,304.106Z" transform="translate(-183.761 -300.767)" fill="#93b88a"/>
        </g>
        <g id="グループ_145" data-name="グループ 145" transform="translate(3.489)" opacity="0.37" style="mix-blend-mode: screen;isolation: isolate">
          <path id="パス_103" data-name="パス 103" d="M194.924,301.608c-2.108.142-3.22,1.849-4.724,3.631.242.787.913,1.595.557,2.777-.65,2.164-5.71,3.815-.759,6.986,2.274,1.455,5.162,2.611,6.3,5.3a5.842,5.842,0,0,1,.212.619l.05.009.132.021a4.538,4.538,0,0,0,.767.034c.032,0,.064-.006.1-.008a3.628,3.628,0,0,0,.636-.107l.108-.03a3.622,3.622,0,0,0,1.131-.589c-.755-.172-1.549-1.141-2.383-2.76-1.7-3.314-.95-6.475-.379-8.878.755-3.182.117-5.494-1.036-6.986A4.082,4.082,0,0,0,194.924,301.608Z" transform="translate(-187.848 -301.6)" fill="#95ab26"/>
        </g>
      </g>
      <g id="グループ_149" data-name="グループ 149" transform="translate(169.858 324.141)">
        <g id="グループ_147" data-name="グループ 147">
          <path id="パス_104" data-name="パス 104" d="M175.154,324.341c1.112-2.564-.254-5.035-1.014-7.645-.779-2.677-.8-8.4-3.817-7.519a10.5,10.5,0,0,0-2.917,1.726,18.085,18.085,0,0,0-6.455,4.358c-2.319,2.543-4.657,4.769-.819,9.456,2.267,2.77,5.214,5.806,8.412,4.74C170.776,328.714,174.207,326.528,175.154,324.341Z" transform="translate(-158.092 -309.085)" fill="#5e6c52"/>
          <path id="パス_105" data-name="パス 105" d="M162.678,325.739c.04.029.082.059.122.09,1.607,1.161,3.044,1.612,3.766.648.006-.011.023-.006.032,0,1.262,1.126,1.135.352,1.955.215.011,0,.027.017.027.017s1.955-.583,2.159-.61a5.416,5.416,0,0,0,1.354-.183l.024-.008a3.651,3.651,0,0,0,1.65-1.616,4.044,4.044,0,0,0,.37-.91,5.713,5.713,0,0,0-.119-2.652c-.212-.869-.49-1.759-.794-2.663-.53-1.57-1.123-3.272-1.47-4.431-.746-2.494-1.172-4.819-5.285-2.435-.959.557-2,1.3-3.007,1.993a23.676,23.676,0,0,1-3.161,2.051c-2.167,2.158-2.6,4.22-1.625,6.574a25.718,25.718,0,0,0,2.193,2.379,21.562,21.562,0,0,0,1.729,1.479Z" transform="translate(-158.044 -308.5)" fill="#708668"/>
          <path id="パス_106" data-name="パス 106" d="M171.767,320.482a11.731,11.731,0,0,0-1.823-2.73c-.785-.979-.945-2.77-1.379-4.206-.064-.128-.123-.263-.195-.383-.682-1.134-1.633-1.085-3.445-.113-1.21.65-4.317,2.065-3.693,3.433.379.829,1.686,1.271,2.423,1.715.472.286,1.558.915.953,1.656-.487.6-1.6.07-2.164-.1-.88-.271-2.2-.733-2.245.458a2.228,2.228,0,0,0,1.318,1.919,11.483,11.483,0,0,0,4.608,1.526,10.326,10.326,0,0,0,4.078-.137A2.156,2.156,0,0,0,171.767,320.482Z" transform="translate(-156.994 -307.399)" fill="#6b8f6b"/>
        </g>
        <g id="グループ_148" data-name="グループ 148" transform="translate(0.11 3.475)" opacity="0.37" style="mix-blend-mode: screen;isolation: isolate">
          <path id="パス_107" data-name="パス 107" d="M175.116,323.149c.912-2.1.1-3.938-.578-6.186-.741-.114-1.706.177-2.467-.692-1.4-1.592-.247-7.224-5.159-3.838-2.254,1.554-4.571,3.835-7.25,3.74a4.344,4.344,0,0,1-.592-.072l-.032.046c-.027.04-.055.079-.081.119a5.446,5.446,0,0,0-.4.727c-.015.032-.027.064-.041.1a4.664,4.664,0,0,0-.224.663c-.011.04-.021.079-.029.117a4.441,4.441,0,0,0-.084,1.356c.5-.653,1.654-.992,3.34-1.079,3.45-.18,5.583,1.957,7.207,3.576,2.15,2.144,4.288,2.553,6.029,2.1A5.22,5.22,0,0,0,175.116,323.149Z" transform="translate(-158.164 -311.368)" fill="#5d821d"/>
        </g>
      </g>
      <g id="グループ_151" data-name="グループ 151" transform="translate(135.543 369.99)">
        <g id="グループ_150" data-name="グループ 150">
          <path id="パス_108" data-name="パス 108" d="M135.543,345.928c.032-4.253,5.049-5.579,8.631-6.159,3.674-.6,9.225-1.374,12.095,1.615a6.046,6.046,0,0,1,1.513,2.7c.974,1.266,1.3,3.022.609,5.411-2,6.874-9.7,11.8-16.287,6.437C139.369,353.7,135.517,349.556,135.543,345.928Z" transform="translate(-135.543 -339.214)" fill="#6b7968"/>
          <path id="パス_109" data-name="パス 109" d="M148.475,355.889c-.047,0-.094,0-.142,0-1.873-.082-3.549-.609-3.853-2.137,0-.015-.023-.021-.037-.018-1.8.361-1.344-.373-2.205-1.027a.032.032,0,0,0-.04,0,12.742,12.742,0,0,0-2.27-1.954,10.8,10.8,0,0,1-1.717-.969l-.03-.024a4.55,4.55,0,0,1-1.373-2.914,3.877,3.877,0,0,1,.117-1.353,5.033,5.033,0,0,1,2.494-2.742,14.852,14.852,0,0,1,3.628-1.365,37.684,37.684,0,0,1,6.086-.8c3.263-.2,6.627.25,7.956,3.619a7.513,7.513,0,0,1,.438,2.482,27.066,27.066,0,0,0,.008,2.744,12.956,12.956,0,0,1-4.221,5.936,22.858,22.858,0,0,1-2.719.44c-.61.049-1.313.1-2.029.087Z" transform="translate(-134.89 -338.519)" fill="#809380"/>
          <path id="パス_110" data-name="パス 110" d="M139.733,343.82a12.95,12.95,0,0,1,4.8-.656c1.828,0,3.631-.849,5.446-1.064.19,0,.38,0,.569.011a3.469,3.469,0,0,1,3.377,2.471c.394,1.042,1.157,3.6-.455,3.966-.977.224-2.264-.367-3.219-.575-.609-.132-2.062-.46-2.133.507-.056.779,1.254,1.152,1.808,1.415.864.411,2.045.965,1.26,2.006a2.014,2.014,0,0,1-2.178.7,18.43,18.43,0,0,1-4.979-1.847A22.535,22.535,0,0,1,139.47,348C137.916,346.691,137.668,344.663,139.733,343.82Z" transform="translate(-134.133 -337.708)" fill="#859c8c"/>
        </g>
        <path id="パス_111" data-name="パス 111" d="M135.565,346.509a5.846,5.846,0,0,0,.834,1.729c1.718,2.423,5.029,1.882,7.221,3.625,1.986,1.581,3,2.719,5.8,2.4,5.809-.654,6.676-6.323,3.331-10.165a16.069,16.069,0,0,0-7.5-4.5c3.611-.539,8.411-.925,11.011,1.784a6.046,6.046,0,0,1,1.513,2.7c.974,1.266,1.3,3.022.609,5.411-.062.212-.129.422-.2.63h0c-.093.268-.2.531-.307.791l-.087.2q-.144.326-.3.644c-.021.041-.043.085-.064.126-.132.254-.274.5-.422.749-.02.032-.041.062-.061.094-.135.219-.277.432-.423.642-.026.036-.052.073-.079.11a12.809,12.809,0,0,1-1.111,1.345l-.053.056c-3.365,3.5-8.543,4.823-13.174,1.053C139.5,353.823,135.917,349.99,135.565,346.509Z" transform="translate(-135.531 -339.214)" fill="#859c8c" opacity="0.29" style="mix-blend-mode: multiply;isolation: isolate"/>
      </g>
      <g id="グループ_153" data-name="グループ 153" transform="translate(213.282 380.735)">
        <g id="グループ_152" data-name="グループ 152">
          <path id="パス_112" data-name="パス 112" d="M194.456,346.281c2.99-.169,4.25,2.957,4.892,5.2.659,2.3,1.57,5.793-.341,7.747a4.191,4.191,0,0,1-1.8,1.079,4.371,4.371,0,0,1-3.76.625c-4.961-.968-8.925-5.635-5.591-10.051C189.244,349.052,191.906,346.424,194.456,346.281Z" transform="translate(-186.628 -346.275)" fill="#6b7968"/>
          <path id="パス_113" data-name="パス 113" d="M187.443,354.939l-.006-.09c-.065-1.192.195-2.28,1.249-2.54.009,0,.012-.014.011-.023-.373-1.129.173-.87.575-1.446a.018.018,0,0,0,0-.026c.1.073,1.137-1.363,1.223-1.526a6.359,6.359,0,0,1,.569-1.132l.015-.02a3.209,3.209,0,0,1,1.957-1,3.084,3.084,0,0,1,.957.015,3.652,3.652,0,0,1,2.091,1.461,9.345,9.345,0,0,1,1.2,2.243,22.2,22.2,0,0,1,.96,3.827c.352,2.06.259,4.215-2.021,5.207a5.655,5.655,0,0,1-1.715.388c-.609.035-1.3.032-1.927.126a9.64,9.64,0,0,1-4.447-2.417,13.4,13.4,0,0,1-.488-1.706,12.112,12.112,0,0,1-.193-1.283Z" transform="translate(-186.21 -345.841)" fill="#809380"/>
          <path id="パス_114" data-name="パス 114" d="M194.2,348.892a7.7,7.7,0,0,1,.776,3.015,29.253,29.253,0,0,0,1.1,3.41c.011.12.026.24.029.361a2.139,2.139,0,0,1-1.514,2.252c-.706.3-2.452.893-2.815-.113a4.785,4.785,0,0,1,.192-2.068c.053-.393.187-1.328-.5-1.332-.551,0-.727.846-.875,1.21-.231.566-.543,1.341-1.327.887a1.254,1.254,0,0,1-.632-1.35,10.665,10.665,0,0,1,.971-3.243,13.349,13.349,0,0,1,1.637-3.012C192.063,347.866,193.472,347.62,194.2,348.892Z" transform="translate(-185.581 -345.359)" fill="#859c8c"/>
        </g>
        <path id="パス_115" data-name="パス 115" d="M194.05,346.31a4.082,4.082,0,0,0-1.16.606c-1.59,1.2-.994,3.275-2.074,4.742-.98,1.33-1.714,2.022-1.307,3.786.84,3.657,4.879,3.956,7.359,1.665a9.607,9.607,0,0,0,2.671-4.961c.615,2.269,1.2,5.3-.531,7.067a4.192,4.192,0,0,1-1.8,1.079,4.37,4.37,0,0,1-3.76.625q-.231-.046-.456-.1h0c-.195-.047-.387-.1-.577-.16l-.143-.046c-.158-.052-.317-.107-.472-.166l-.094-.035c-.187-.073-.371-.151-.552-.234l-.07-.034c-.163-.076-.323-.157-.479-.24l-.082-.046a9.159,9.159,0,0,1-1.018-.645l-.043-.032c-2.683-1.98-3.949-5.207-1.6-8.313C189.169,349.131,191.627,346.686,194.05,346.31Z" transform="translate(-186.628 -346.256)" fill="#859c8c" opacity="0.29" style="mix-blend-mode: multiply;isolation: isolate"/>
      </g>
      <g id="グループ_155" data-name="グループ 155" transform="translate(161.998 373.244)">
        <g id="グループ_154" data-name="グループ 154">
          <path id="パス_116" data-name="パス 116" d="M161.561,341.454c3.867-.781,6.159,3.08,7.463,5.906,1.336,2.9,3.249,7.3,1.16,10.22a5.416,5.416,0,0,1-2.12,1.75c-.936,1.038-2.458,1.642-4.777,1.523-6.671-.339-12.81-5.714-9.376-12.128C155.337,346.063,158.265,342.121,161.561,341.454Z" transform="translate(-152.927 -341.352)" fill="#6b7968"/>
          <path id="パス_117" data-name="パス 117" d="M154.249,353.984l-.026-.117c-.332-1.551-.218-3.024,1.1-3.562a.026.026,0,0,0,.009-.033c-.72-1.409.046-1.172.452-2a.026.026,0,0,0-.011-.033,10.186,10.186,0,0,0,1.28-2.229,8.213,8.213,0,0,1,.508-1.592l.015-.029a4.16,4.16,0,0,1,2.347-1.678,4,4,0,0,1,1.251-.16,4.893,4.893,0,0,1,3.03,1.525,12.6,12.6,0,0,1,2.025,2.715,29.965,29.965,0,0,1,2.045,4.836c.887,2.636,1.211,5.478-1.557,7.206a7.328,7.328,0,0,1-2.156.829c-.788.16-1.694.286-2.488.527a12.934,12.934,0,0,1-6.3-2.334,18.472,18.472,0,0,1-.989-2.144,16.469,16.469,0,0,1-.519-1.647Z" transform="translate(-152.333 -340.729)" fill="#809380"/>
          <path id="パス_118" data-name="パス 118" d="M161.807,344.667a10.373,10.373,0,0,1,1.637,3.807c.4,1.5,1.558,2.814,2.147,4.262.04.155.085.31.114.467a2.792,2.792,0,0,1-1.51,3.235c-.86.522-3.013,1.631-3.7.38-.415-.759-.16-1.927-.178-2.747-.011-.527-.03-1.777-.922-1.653-.718.1-.773,1.245-.892,1.749-.184.787-.431,1.86-1.546,1.414a1.7,1.7,0,0,1-1.1-1.653,14.029,14.029,0,0,1,.6-4.431,17.524,17.524,0,0,1,1.511-4.255C158.809,343.723,160.6,343.134,161.807,344.667Z" transform="translate(-151.41 -340.09)" fill="#859c8c"/>
        </g>
        <path id="パス_119" data-name="パス 119" d="M159.828,341.454c3.17-.639,5.279,1.838,6.656,4.31-.542,1.271-1.363,2.423-1.192,3.941.313,2.783,3.447,6.21-.35,8.018-1.742.829-4.075.889-5.34,2.458a3.216,3.216,0,0,0-.247.373l-.049-.009-.129-.027q-.39-.091-.772-.205l-.1-.03c-.227-.07-.452-.145-.674-.227l-.117-.043a13.133,13.133,0,0,1-1.266-.56,3.933,3.933,0,0,0,2.8-1.554c1.831-2.141,1.064-5.288.173-7.668a11.777,11.777,0,0,1-.408-8.46A5.776,5.776,0,0,1,159.828,341.454Z" transform="translate(-151.193 -341.352)" fill="#859c8c" opacity="0.37" style="mix-blend-mode: screen;isolation: isolate"/>
      </g>
      <g id="グループ_157" data-name="グループ 157" transform="translate(198.108 303.1)">
        <g id="グループ_156" data-name="グループ 156">
          <path id="パス_120" data-name="パス 120" d="M179.721,296.538c3.261-2.865,7.791-.313,10.747,1.758,3.03,2.124,7.519,5.414,7.256,9.418a5.723,5.723,0,0,1-.994,2.87c-.28,1.529-1.385,2.949-3.693,4.09-6.641,3.285-15.793,1.332-16.33-6.837C176.482,304.446,176.94,298.982,179.721,296.538Z" transform="translate(-176.657 -295.258)" fill="#535e51"/>
          <path id="パス_121" data-name="パス 121" d="M180.475,312.276l-.1-.1c-1.251-1.344-2.025-2.855-1.076-4.1.011-.012,0-.029-.011-.037-1.54-1-.659-1.178-.765-2.214a.028.028,0,0,0-.029-.026,11.435,11.435,0,0,0-.1-2.887,9.482,9.482,0,0,1-.466-1.84l0-.037a4.386,4.386,0,0,1,1.257-2.923,4.241,4.241,0,0,1,1.111-.837,5.579,5.579,0,0,1,3.838-.145,15.207,15.207,0,0,1,3.587,1.57,36.542,36.542,0,0,1,4.877,3.646c2.438,2.109,4.459,4.727,2.826,7.927a7.7,7.7,0,0,1-1.583,1.986c-.665.584-1.462,1.2-2.085,1.867a14.478,14.478,0,0,1-7.482,1.123,22.569,22.569,0,0,1-2.243-1.57c-.466-.388-1-.839-1.49-1.338Z" transform="translate(-175.995 -294.421)" fill="#697869"/>
          <path id="パス_122" data-name="パス 122" d="M182.708,298.444a12.686,12.686,0,0,1,3.865,2.853c1.284,1.255,3.193,1.922,4.631,3.025.132.132.269.259.393.4a3.151,3.151,0,0,1,.485,4c-.517.979-1.928,3.238-3.339,2.379-.855-.52-1.31-1.806-1.82-2.6-.327-.51-1.1-1.73-1.884-1.125-.633.49,0,1.644.19,2.2.294.874.7,2.062-.644,2.228a2.043,2.043,0,0,1-2.057-1.024,16.572,16.572,0,0,1-2.088-4.68,20.128,20.128,0,0,1-1.1-5C179.248,299.142,180.617,297.594,182.708,298.444Z" transform="translate(-175.257 -293.72)" fill="#6e8174"/>
        </g>
        <path id="パス_123" data-name="パス 123" d="M178.94,296.538c2.672-2.348,6.2-1.056,9.009.625.24,1.545.14,3.123,1.217,4.523,1.975,2.566,7.055,4.235,4.479,8.071-1.184,1.762-3.4,3.085-3.675,5.314a3.481,3.481,0,0,0-.015.5l-.053.017-.142.043c-.288.081-.575.154-.866.218l-.114.023c-.262.055-.523.1-.787.143-.046.008-.091.015-.138.021a14.216,14.216,0,0,1-1.558.135,4.123,4.123,0,0,0,1.767-3.045c.479-3.1-2.15-5.775-4.439-7.632-3.03-2.461-4.792-4.982-5.472-8.1A5.993,5.993,0,0,1,178.94,296.538Z" transform="translate(-175.876 -295.258)" fill="#6e8174" opacity="0.37" style="mix-blend-mode: screen;isolation: isolate"/>
      </g>
      <g id="グループ_160" data-name="グループ 160" transform="translate(233.026 354.646)">
        <g id="グループ_158" data-name="グループ 158">
          <path id="パス_124" data-name="パス 124" d="M211.132,329.533c-1.755-1.357-3.6,1.023-5.544,2.595-2,1.612-6,3.127-5.987,6.784a5.393,5.393,0,0,0,.867,2.847,5.587,5.587,0,0,0,4.126,3.978c2.92.759,7.32,1.318,10.24-2.372,1.724-2.182,2.957-4.864,1.052-7.428C214.556,334.149,212.628,330.691,211.132,329.533Z" transform="translate(-199.602 -329.13)" fill="#4d574b"/>
          <path id="パス_125" data-name="パス 125" d="M214.752,340.608l.034-.108c.406-1.417.242-2.639-.907-2.983-.011,0-.012-.018-.006-.027.694-1.309-.008-1.018-.307-1.718,0-.009.009-.029.009-.029s-.834-1.718-.878-1.919a10.919,10.919,0,0,0-.262-1.4l-.009-.026a3.886,3.886,0,0,0-1.28-1.685,2.07,2.07,0,0,0-.665-.342,2.591,2.591,0,0,0-1.959.59,24.893,24.893,0,0,0-2.019,1.564c-1.2,1.012-2.5,2.129-3.381,2.814-1.89,1.473-4.054,3.241-2.31,6.407a7.008,7.008,0,0,0,1.738,1.971c.743.563,1.657,1.1,2.448,1.613a10.293,10.293,0,0,0,7.744-1.071,12.094,12.094,0,0,0,1.339-2.032,10.683,10.683,0,0,0,.65-1.546Z" transform="translate(-199.306 -328.503)" fill="#627162"/>
          <path id="パス_126" data-name="パス 126" d="M208.222,331.868a17.645,17.645,0,0,0-2.165,2.745c-.784,1.111-2.159,1.689-3.273,2.508-.1.1-.207.2-.3.3a2.469,2.469,0,0,0-.146,3.375c.577.877,2.388,2.742,3.5,1.884.679-.52.77-1.6,1.027-2.309.164-.449.519-1.507,1.3-1.222.628.228.429,1.228.429,1.689,0,.72.011,1.742,1.277,1.417a1.784,1.784,0,0,0,1.42-1.444,10.943,10.943,0,0,0-.006-3.926,24.567,24.567,0,0,0-.683-3.835C210.2,331.639,209.324,330.853,208.222,331.868Z" transform="translate(-198.485 -327.942)" fill="#687a6d"/>
        </g>
        <g id="グループ_159" data-name="グループ 159" transform="translate(2.153 0.002)" opacity="0.37" style="mix-blend-mode: screen;isolation: isolate">
          <path id="パス_127" data-name="パス 127" d="M210.394,329.532c-1.438-1.112-2.774.3-4.454,1.7-.234,1.254-.167,2.554-.892,3.7-1.324,2.1-5.845,2.864-3.234,6.527,1.2,1.682,3.55,2.7,4.45,4.418a2.767,2.767,0,0,1,.158.391l.058,0c.052,0,.1.008.157.011.315.017.628.017.942,0,.041,0,.081,0,.122-.008q.422-.023.837-.082c.049-.006.1-.014.146-.021a10.022,10.022,0,0,0,1.59-.385,3.337,3.337,0,0,1-2.709-1.744c-1.321-2.274.527-4.8,1.724-6.729a11.163,11.163,0,0,0,1.569-7.347A4.212,4.212,0,0,0,210.394,329.532Z" transform="translate(-201.017 -329.132)" fill="#1c4717"/>
        </g>
      </g>
      <g id="グループ_163" data-name="グループ 163" transform="translate(208.522 294.837)">
        <g id="グループ_161" data-name="グループ 161" transform="translate(0 0.002)">
          <path id="パス_128" data-name="パス 128" d="M192.908,289.989c2.307-.927,3.432,2.382,4.938,4.815,1.545,2.5,5.232,5.571,3.969,9.681a6.533,6.533,0,0,1-1.885,2.907,6.214,6.214,0,0,1-5.694,3.065c-3.328-.142-8.14-1.018-9.945-6.171-1.067-3.045-1.444-6.484,1.433-8.717C187.734,294.011,190.94,290.78,192.908,289.989Z" transform="translate(-183.5 -289.829)" fill="#7d8d79"/>
          <path id="パス_129" data-name="パス 129" d="M184.35,301.157c0-.044,0-.09,0-.132.056-1.733.648-3.053,1.971-3.047.014,0,.02-.017.017-.029-.282-1.709.356-1.143.912-1.828.008-.009,0-.037,0-.037s1.462-1.647,1.578-1.858a13.521,13.521,0,0,1,.755-1.49l.018-.026a4.434,4.434,0,0,1,1.922-1.458,2.188,2.188,0,0,1,.816-.158,2.783,2.783,0,0,1,1.855,1.335,28.339,28.339,0,0,1,1.586,2.452c.915,1.549,1.9,3.25,2.59,4.322,1.482,2.3,3.152,5.034.236,8a7.851,7.851,0,0,1-2.5,1.624c-.972.379-2.118.668-3.124.977a10.861,10.861,0,0,1-7.77-3.855,14.658,14.658,0,0,1-.711-2.742,13.466,13.466,0,0,1-.155-1.965Z" transform="translate(-183.058 -289.169)" fill="#92a792"/>
          <path id="パス_130" data-name="パス 130" d="M192.286,293.248a21.023,21.023,0,0,1,1.336,3.829c.443,1.519,1.691,2.64,2.581,3.941.072.149.151.294.213.446a3.048,3.048,0,0,1-1,3.847c-.9.79-3.445,2.272-4.326.924-.534-.819-.259-2.07-.289-2.949-.018-.563-.029-1.872-.947-1.82-.738.043-.87,1.236-1.027,1.755-.245.81-.607,1.957-1.826,1.157a2.1,2.1,0,0,1-1-2.109,13.735,13.735,0,0,1,1.35-4.418,30.512,30.512,0,0,1,2.029-4.081C190.288,292.314,191.477,291.728,192.286,293.248Z" transform="translate(-182.2 -288.511)" fill="#96b09e"/>
        </g>
        <g id="グループ_162" data-name="グループ 162" transform="translate(3.973)" opacity="0.37" style="mix-blend-mode: screen;isolation: isolate">
          <path id="パス_131" data-name="パス 131" d="M191.545,289.989c1.892-.759,2.811,1.287,4.1,3.433-.181,1.491-.7,2.931-.329,4.471.673,2.82,5.163,5.223,1.166,8.45-1.834,1.482-4.654,1.829-6.186,3.45a3.4,3.4,0,0,0-.3.385l-.064-.014c-.056-.014-.113-.027-.167-.043q-.5-.135-.991-.318l-.126-.05q-.436-.171-.851-.379l-.146-.075a10.675,10.675,0,0,1-1.54-.977,3.584,3.584,0,0,0,3.444-1.036c2.164-2.106,1.088-5.583.49-8.163a13.958,13.958,0,0,1,.864-8.8A4.6,4.6,0,0,1,191.545,289.989Z" transform="translate(-186.111 -289.828)" fill="#5ba334"/>
        </g>
      </g>
      <path id="パス_132" data-name="パス 132" d="M138.044,364.942c16.736,2.522,23.886,18.657,30.087,31.644A81.806,81.806,0,0,0,175.3,409.23a85.175,85.175,0,0,0,5.5,6.652c-.333-.574-.662-1.144-.986-1.7a67.962,67.962,0,0,1-6.321-14.5c-3.167-10.47-4.669-21.633-5.666-32.436a.106.106,0,0,1,.21-.021c1.618,10.876,2.739,21.58,6.4,32.109a108.842,108.842,0,0,0,5.97,13.839,98.691,98.691,0,0,0,5.361,8.648,50.5,50.5,0,0,1,4,5.9c-.222-2.721-.254-5.472-.21-8.228a69.234,69.234,0,0,1,.24-8.446c.047-1.8.076-3.59.049-5.366a210.534,210.534,0,0,0-1.108-22.44,85.436,85.436,0,0,0-22.5-41.9c-.053-.056.043-.145.1-.09a75.609,75.609,0,0,1,21.017,33.748,137.581,137.581,0,0,0-7.444-22.787c-3.25-7.976-5.924-16.325-3.4-24.753.067-.221.446-.173.383.059-2.642,9.986,1.7,19.438,5.579,28.64a111.2,111.2,0,0,1,7.114,24.333c.928,5.375,1.675,10.812,2.117,16.255a48.993,48.993,0,0,1,3.337-10.655,47.945,47.945,0,0,1,5.014-8.832c2.071-6.56,4.008-12.967,3.678-19.987a48.781,48.781,0,0,0-5.71-20.3c-.061-.117.143-.227.213-.11a47.834,47.834,0,0,1,6.586,23.262c.469-6.688.19-13.475.715-20.22.942-12.078,7.843-23.539,3.123-35.656-.053-.135.16-.263.243-.126a17.752,17.752,0,0,1,2.493,9.08c1.507-4.646,3.2-9.245,4.809-13.854.036-.1.195-.03.161.07-1.639,4.973-3.191,9.995-4.975,14.925-.218,7.951-4.1,16.365-4.9,23.762-1.266,11.708.854,24.1-3.7,35.2-.041.117-.081.236-.125.353,1.1-.8,2.305-1.472,3.4-2.295a38.6,38.6,0,0,0,5.961-5.533,38.167,38.167,0,0,0,6.081-9.786c1.023-2.547,1.873-5.177,2.724-7.855q.336-1.052.7-2.1c2.43-8.613,3.922-18.22,1.739-26.649-.02-.073.111-.1.135-.03,2.283,7.178,1.51,14.872-.219,22.253,3.409-8.443,8.243-16.532,15.027-22.8.187-.173.508.053.33.256-4.351,4.953-8.376,9.8-11.489,15.6-3.033,5.644-4.759,11.549-6.615,17.621-3.106,10.155-9.526,17.441-17.54,24.026-.943,1.114-1.9,2.222-2.728,3.413a47.029,47.029,0,0,0-4.568,8.45,59.754,59.754,0,0,0-3.687,11.5q.189,3.177.221,6.35c.044,5.157.207,10.52-.142,15.787q.139,1.349.257,2.69c.306,3.564.636,7.085,1.006,10.608a54.481,54.481,0,0,1,1.875-11.2,37.485,37.485,0,0,1,4.628-10.687c.155-.233.326-.449.488-.674,2.071-5.55,6.347-10.693,9.6-15.481,4.666-6.875,9.5-14.177,10.99-22.409a.038.038,0,0,1,.075.012c-1.4,7.467-4.6,13.945-8.709,20.376-2.248,3.521-4.623,6.968-6.81,10.524-.639,1.042-1.233,2.109-1.815,3.18,1.861-1.8,3.912-3.427,5.979-5.058,4.027-3.179,8.367-6.18,11.789-9.974A61.733,61.733,0,0,0,229.9,380.9c4.857-9.268,8-19.3,12.793-28.586a.106.106,0,0,1,.193.084,223.55,223.55,0,0,1-11.845,27.69c-3.7,7.4-8.423,14.352-14.927,19.78-3.81,3.181-7.968,6-11.232,9.73a41.332,41.332,0,0,0-7.639,12.488,51.26,51.26,0,0,0-2.869,16.7,178.183,178.183,0,0,1,1.605,30.921q-.2,8.959-1.045,17.881c-.38,4-.49,8.5-1.418,12.609-.059.852-.132,1.7-.227,2.552-.288,2.56-.362,5.72-2.347,7.618-.119.113-.37.161-.475-.015-1.251-2.114-.767-4.489-.449-6.8.473-3.428,1.316-6.769,1.844-10.19a110.589,110.589,0,0,0,1.542-20.344c-.1-3.467.706-6.881.691-10.353-.008-1.956-.079-3.909-.195-5.863a.213.213,0,0,1-.02-.3c-.084-1.362-.186-2.724-.317-4.084-.469-4.856-1.872-9.721-2.371-14.641a3.007,3.007,0,0,1-.047-.5c-.024-.28-.035-.561-.053-.843a38.071,38.071,0,0,0-2.421-6.877,63.1,63.1,0,0,0-6.379-9.981c-4.728-6.256-9.283-12.5-12.807-19.457-6.916-13.643-13.559-31.823-31.488-34.9A.134.134,0,1,1,138.044,364.942Z" transform="translate(1.223 9.945)" fill="url(#linear-gradient-12)"/>
      <g id="グループ_165" data-name="グループ 165" transform="translate(238.943 367.583)">
        <g id="グループ_164" data-name="グループ 164">
          <path id="パス_133" data-name="パス 133" d="M224,340.61c3.1,3.12.525,7.408-1.58,10.2-2.158,2.865-5.507,7.11-9.727,6.833a6.656,6.656,0,0,1-3.045-.963c-1.616-.277-3.136-1.338-4.4-3.54-3.625-6.335-1.8-15.02,6.782-15.475C215.6,337.479,221.361,337.95,224,340.61Z" transform="translate(-203.491 -337.632)" fill="#81917d"/>
          <path id="パス_134" data-name="パス 134" d="M206.595,341.205l.1-.091c1.383-1.179,2.954-1.905,4.288-.994a.029.029,0,0,0,.038-.011c1.009-1.458,1.223-.619,2.31-.714a.027.027,0,0,0,.027-.027,13.241,13.241,0,0,0,3.036-.079,10.751,10.751,0,0,1,1.923-.431l.04,0a5.023,5.023,0,0,1,3.106,1.213,4.268,4.268,0,0,1,.908,1.062,4.852,4.852,0,0,1,.25,3.649,13.3,13.3,0,0,1-1.563,3.4,33.607,33.607,0,0,1-3.713,4.611c-2.158,2.3-4.862,4.206-8.271,2.633a8.4,8.4,0,0,1-2.129-1.517c-.63-.636-1.3-1.4-2.016-1.994a12.789,12.789,0,0,1-1.371-7.12,20.681,20.681,0,0,1,1.6-2.121,19.2,19.2,0,0,1,1.371-1.408Z" transform="translate(-203.49 -336.992)" fill="#95ab95"/>
          <path id="パス_135" data-name="パス 135" d="M219.474,343.418a11.662,11.662,0,0,1-2.907,3.655c-1.287,1.213-1.94,3.022-3.066,4.381-.135.125-.265.254-.409.37a3.547,3.547,0,0,1-4.2.435c-1.044-.5-3.456-1.855-2.587-3.19.527-.811,1.867-1.233,2.694-1.714.53-.306,1.794-1.03,1.135-1.782-.53-.606-1.729-.009-2.313.166-.912.274-2.152.651-2.36-.627a1.83,1.83,0,0,1,1.026-1.949,17.847,17.847,0,0,1,4.873-1.952A22.7,22.7,0,0,1,216.6,340.2C218.651,340.123,220.314,341.436,219.474,343.418Z" transform="translate(-202.476 -336.292)" fill="#9ab4a2"/>
        </g>
        <path id="パス_136" data-name="パス 136" d="M223.55,340.209a6.419,6.419,0,0,0-1.857-.706c-2.987-.629-4.932,1.959-7.756,2.14-2.56.164-4.11.006-5.857,2.089-3.62,4.323-.078,9.027,5.1,9.612a16.161,16.161,0,0,0,8.6-1.689c-2.155,2.785-5.261,6.244-9.085,5.993a6.656,6.656,0,0,1-3.045-.963c-1.616-.277-3.136-1.338-4.4-3.54q-.169-.292-.32-.592h0c-.131-.257-.25-.519-.364-.782l-.082-.2c-.091-.222-.178-.446-.256-.671-.017-.046-.034-.09-.049-.135-.093-.272-.177-.548-.251-.823l-.027-.11c-.064-.248-.12-.5-.17-.749-.009-.044-.018-.087-.026-.131a12.289,12.289,0,0,1-.2-1.717l0-.076c-.193-4.78,2.5-9.172,8.531-9.491C215.408,337.489,220.751,337.906,223.55,340.209Z" transform="translate(-203.489 -337.631)" fill="#9ab4a2" opacity="0.29" style="mix-blend-mode: multiply;isolation: isolate"/>
      </g>
      <g id="グループ_167" data-name="グループ 167" transform="translate(233.272 326.731)">
        <g id="グループ_166" data-name="グループ 166">
          <path id="パス_137" data-name="パス 137" d="M215.225,313.943c-.644-2.844-4.2-3.17-6.681-3.156-2.547.014-6.378.114-7.861,2.436a7.159,7.159,0,0,0-.231,5.667c2.35,4.378,8.225,6.811,11.848,2.483C213.8,319.578,215.775,316.369,215.225,313.943Z" transform="translate(-199.764 -310.787)" fill="#768162"/>
          <path id="パス_138" data-name="パス 138" d="M207.554,322.1l.094-.018c1.242-.265,2.287-.806,2.266-1.863,0-.011.012-.017.021-.017,1.262.04.846-.4,1.327-.934a.019.019,0,0,1,.027,0c-.1-.079,1.09-1.437,1.233-1.563a6.88,6.88,0,0,0,1.007-.843l.017-.018a2.973,2.973,0,0,0,.492-2.106,2.745,2.745,0,0,0-.277-.892,3.684,3.684,0,0,0-2.071-1.555,10.469,10.469,0,0,0-2.63-.508,25.917,25.917,0,0,0-4.191.148c-2.213.234-4.4.91-4.8,3.316a5.108,5.108,0,0,0,.07,1.711c.132.58.324,1.228.4,1.837a9.495,9.495,0,0,0,3.7,3.5,15.97,15.97,0,0,0,1.884-.009c.417-.036.895-.082,1.371-.17Z" transform="translate(-199.626 -310.287)" fill="#899b78"/>
          <path id="パス_139" data-name="パス 139" d="M210.646,313.049a8.92,8.92,0,0,0-3.307.1,33.906,33.906,0,0,1-3.8-.1c-.128.021-.254.04-.38.07a2.217,2.217,0,0,0-1.9,2.033c-.111.743-.246,2.538.886,2.6a5.486,5.486,0,0,0,2.071-.746c.388-.157,1.313-.537,1.5.1.152.516-.67.913-1,1.151-.519.371-1.228.875-.551,1.484a1.414,1.414,0,0,0,1.56.224,11.885,11.885,0,0,0,3.063-1.8,14.28,14.28,0,0,0,2.646-2.356C212.282,314.767,212.151,313.381,210.646,313.049Z" transform="translate(-199.021 -309.669)" fill="#83a47b"/>
        </g>
        <path id="パス_140" data-name="パス 140" d="M215.288,314.333a3.765,3.765,0,0,1-.3,1.251c-.794,1.814-3.091,1.825-4.3,3.237-1.1,1.28-1.61,2.156-3.531,2.258-3.984.213-5.4-3.485-3.719-6.432a10.214,10.214,0,0,1,4.363-3.855c-2.5.044-5.767.324-7.111,2.429a7.159,7.159,0,0,0-.231,5.667c.073.135.149.268.228.4h0c.1.169.21.335.321.5l.087.122c.1.134.195.266.3.4.021.026.041.053.061.079.126.155.257.306.393.454l.055.056c.122.131.248.259.377.382l.068.065a9.673,9.673,0,0,0,.94.776l.046.03c2.765,1.969,6.425,2.272,8.974-.772C213.725,319.67,215.563,316.7,215.288,314.333Z" transform="translate(-199.764 -310.784)" fill="#83a47b" opacity="0.29" style="mix-blend-mode: multiply;isolation: isolate"/>
      </g>
      <g id="グループ_169" data-name="グループ 169" transform="translate(160.084 344.483)">
        <g id="グループ_168" data-name="グループ 168">
          <path id="パス_141" data-name="パス 141" d="M153.495,323.033c-2.651,1.4-1.857,4.71-1.059,6.957.817,2.3,2.129,5.749,4.929,6.433a4.557,4.557,0,0,0,2.178,0,4.362,4.362,0,0,0,3.582-1.4c3.652-3.378,4.24-9.4-1.248-11.45C159.6,322.714,155.756,321.843,153.495,323.033Z" transform="translate(-151.67 -322.452)" fill="#8d9975"/>
          <path id="パス_142" data-name="パス 142" d="M163.967,327.091l-.049-.079c-.659-1.052-1.531-1.844-2.585-1.525a.019.019,0,0,1-.023-.014c-.358-1.155-.67-.653-1.356-.936a.018.018,0,0,1-.012-.024,9.018,9.018,0,0,1-1.959-.671,7.248,7.248,0,0,0-1.163-.674l-.024-.009a3.428,3.428,0,0,0-2.269.154,2.9,2.9,0,0,0-.808.505,3.31,3.31,0,0,0-.907,2.322,9.027,9.027,0,0,0,.321,2.529,22.759,22.759,0,0,0,1.472,3.757c.933,1.94,2.3,3.73,4.841,3.4a5.71,5.71,0,0,0,1.694-.551c.54-.285,1.132-.644,1.72-.884a8.719,8.719,0,0,0,2.347-4.351,14.048,14.048,0,0,0-.6-1.706,13.181,13.181,0,0,0-.6-1.195Z" transform="translate(-151.076 -322.15)" fill="#9eb38a"/>
          <path id="パス_143" data-name="パス 143" d="M153.817,325.652a7.951,7.951,0,0,0,1.141,2.97,29.677,29.677,0,0,1,1.1,3.476c.062.108.122.219.192.324a2.415,2.415,0,0,0,2.639,1.14c.781-.11,2.627-.5,2.334-1.545-.177-.635-.962-1.184-1.4-1.665-.282-.307-.956-1.036-.374-1.391.469-.285,1.128.347,1.472.581.536.364,1.266.863,1.663.075a1.25,1.25,0,0,0-.269-1.478,12.183,12.183,0,0,0-2.77-2.266,15.4,15.4,0,0,0-3.2-1.726C155.025,323.676,153.674,324.191,153.817,325.652Z" transform="translate(-150.555 -321.655)" fill="#97bc8e"/>
        </g>
        <path id="パス_144" data-name="パス 144" d="M153.522,322.863a4.391,4.391,0,0,1,1.351-.081c2.071.2,2.808,2.283,4.606,2.977,1.631.632,2.672.845,3.381,2.557,1.472,3.552-1.793,5.886-5.281,5.207a11.021,11.021,0,0,1-5.246-2.856c.832,2.252,2.144,5.136,4.682,5.755a4.557,4.557,0,0,0,2.178,0,4.362,4.362,0,0,0,3.582-1.4c.113-.1.222-.212.329-.32h0c.137-.142.268-.286.4-.434.032-.038.064-.075.094-.113.1-.126.207-.254.3-.383.02-.027.04-.052.059-.078.116-.16.225-.321.33-.485l.041-.065c.093-.149.18-.3.263-.452l.044-.081a8.425,8.425,0,0,0,.481-1.074l.018-.049c1.1-3.069.251-6.474-3.608-7.916C159.372,322.758,155.814,321.938,153.522,322.863Z" transform="translate(-151.323 -322.451)" fill="#97bc8e" opacity="0.29" style="mix-blend-mode: multiply;isolation: isolate"/>
      </g>
      <path id="パス_145" data-name="パス 145" d="M191.329,333.482a40.042,40.042,0,0,0-1.739,7.982,29.808,29.808,0,0,1-1.2,6.423,11.233,11.233,0,0,1-6.2,6.773c-.065.032-.085-.138-.024-.177,3.564-2.254,5.452-5.3,6.618-11.695.6-3.275.893-7.108,2.436-9.465C191.28,333.229,191.372,333.352,191.329,333.482Z" transform="translate(24.306 27.686)" fill="url(#linear-gradient-13)"/>
      <path id="パス_146" data-name="パス 146" d="M192.419,372.032a46.2,46.2,0,0,0,8.424-9.636c2.016-3.246,3.555-6.751,5.7-9.923,3.343-4.935,8.4-9.47,14.852-9.98a.1.1,0,1,1,.026.2c-9.1,1.78-13.495,9.094-17.78,16.185-2.869,4.746-5.761,10.675-11.1,13.311C192.449,372.234,192.344,372.1,192.419,372.032Z" transform="translate(29.662 32.487)" fill="url(#linear-gradient-14)"/>
      <g id="グループ_171" data-name="グループ 171" transform="translate(216.91 399.002)">
        <g id="グループ_170" data-name="グループ 170">
          <path id="パス_147" data-name="パス 147" d="M210.32,360.932c-2.319-3.821-7.557-2.713-11.1-1.592-3.632,1.15-9.059,3-10.038,7.012a5.9,5.9,0,0,0,.09,3.127c-.2,1.589.45,3.324,2.365,5.159,5.51,5.279,15.105,6.186,18.156-1.674C211.059,369.7,212.3,364.192,210.32,360.932Z" transform="translate(-189.012 -358.278)" fill="#5d664e"/>
          <path id="パス_148" data-name="パス 148" d="M203.588,375.927l.125-.068c1.645-.934,2.873-2.181,2.324-3.7-.006-.015.008-.029.021-.032,1.822-.5,1.013-.954,1.438-1.939a.028.028,0,0,1,.037-.017,11.686,11.686,0,0,1,.994-2.8,9.822,9.822,0,0,0,1.026-1.663l.014-.035a4.518,4.518,0,0,0-.33-3.26,4.37,4.37,0,0,0-.834-1.166,5.743,5.743,0,0,0-3.727-1.327,15.669,15.669,0,0,0-4.008.435,37.819,37.819,0,0,0-5.918,2.074c-3.047,1.321-5.841,3.269-5.224,6.916a7.877,7.877,0,0,0,.94,2.439c.475.779,1.067,1.631,1.472,2.479a14.91,14.91,0,0,0,7,3.413,23.236,23.236,0,0,0,2.69-.849c.577-.237,1.237-.516,1.875-.855Z" transform="translate(-188.79 -357.426)" fill="#718063"/>
          <path id="パス_149" data-name="パス 149" d="M203.76,361.359a13.034,13.034,0,0,0-4.679,1.61c-1.65.835-3.731.9-5.484,1.542-.17.088-.344.172-.508.271a3.243,3.243,0,0,0-1.712,3.779c.205,1.122.893,3.777,2.544,3.369,1-.248,1.846-1.371,2.593-2,.479-.4,1.613-1.362,2.2-.524.472.676-.508,1.615-.867,2.106-.559.767-1.324,1.809-.055,2.388a2.1,2.1,0,0,0,2.337-.371,17.088,17.088,0,0,0,3.5-3.952A20.732,20.732,0,0,0,206.246,365C206.943,363.114,206.076,361.171,203.76,361.359Z" transform="translate(-187.825 -356.677)" fill="#6d8967"/>
        </g>
        <path id="パス_150" data-name="パス 150" d="M209.439,360.932c-1.9-3.132-5.761-2.952-9.044-2.167-.714,1.441-1.1,3.024-2.595,4.066-2.732,1.911-8.237,1.981-6.892,6.548.619,2.1,2.388,4.08,1.971,6.355a3.544,3.544,0,0,1-.14.5l.047.033.125.085q.386.253.784.481l.1.059c.24.134.482.262.729.383l.129.064a14.99,14.99,0,0,0,1.49.613,4.248,4.248,0,0,1-.8-3.537c.485-3.191,3.9-5.011,6.719-6.128,3.736-1.481,6.247-3.415,7.877-6.262A6.1,6.1,0,0,0,209.439,360.932Z" transform="translate(-188.131 -358.278)" fill="#6d8967" opacity="0.37" style="mix-blend-mode: screen;isolation: isolate"/>
      </g>
      <path id="パス_151" data-name="パス 151" d="M180.258,425.881c1.172-8.187,2.309-16.281,5.005-24.15a89.351,89.351,0,0,1,26.584-38.415c.058-.05.154.043.1.1-11.8,11.25-21.072,24.7-26.319,39.9-2.856,8.277-3.444,16.814-4.453,25.433a84.068,84.068,0,0,1-6.553,23.924c-.073.17-.379.09-.335-.1C176.325,443.694,178.963,434.917,180.258,425.881Z" transform="translate(20.212 43.344)" fill="url(#linear-gradient-15)"/>
      <g id="グループ_174" data-name="グループ 174" transform="translate(160.713 329.172)">
        <g id="グループ_172" data-name="グループ 172">
          <path id="パス_152" data-name="パス 152" d="M162.215,314.059c1.567,1.4,1.49,3.386,1.854,5.3.373,1.966,2.242,5.746-.014,5.946a8.134,8.134,0,0,1-2.468-.38,14.2,14.2,0,0,1-5.635-1.2c-2.347-1.076-4.6-1.937-3.642-6.023.566-2.415,1.487-5.18,3.92-5.306C157.926,312.31,160.88,312.863,162.215,314.059Z" transform="translate(-152.083 -312.391)" fill="#879d78"/>
          <path id="パス_153" data-name="パス 153" d="M153.445,315.624l.05-.091c.665-1.182,1.453-1.852,2.24-1.4.008,0,.017,0,.02-.011.45-1.07.624-.526,1.2-.648.008,0,.014-.018.014-.018s1.464-.123,1.605-.158a3.758,3.758,0,0,1,.942-.231h.018a2.958,2.958,0,0,1,1.605.636,3.4,3.4,0,0,1,.54.505,4.36,4.36,0,0,1,.794,1.78c.148.627.26,1.286.359,1.962.17,1.173.344,2.449.5,3.3.335,1.838.82,3.482-2.642,2.975-.808-.117-1.724-.335-2.614-.534a18.581,18.581,0,0,0-2.733-.533c-2.12-.861-3.077-2.109-3.217-3.913a16.4,16.4,0,0,1,.645-2.138,13.648,13.648,0,0,1,.639-1.423Z" transform="translate(-152.06 -312.04)" fill="#98b78f"/>
          <path id="パス_154" data-name="パス 154" d="M160.835,315.37a7.762,7.762,0,0,1-.289,2.272c-.19.849.3,2.071.484,3.132,0,.1.006.2,0,.3-.071.924-.706,1.138-2.205.968-1-.114-3.491-.242-3.535-1.306-.026-.645.682-1.275,1.015-1.761.213-.309.714-1.006.076-1.338-.513-.266-1.065.368-1.376.628-.484.406-1.193,1.055-1.612.28a1.48,1.48,0,0,1,.227-1.607,7.213,7.213,0,0,1,2.5-2.2,6.976,6.976,0,0,1,2.7-.968A1.726,1.726,0,0,1,160.835,315.37Z" transform="translate(-151.48 -311.675)" fill="#91c094"/>
        </g>
        <g id="グループ_173" data-name="グループ 173" transform="translate(0.394 1.317)" opacity="0.37" style="mix-blend-mode: screen;isolation: isolate">
          <path id="パス_155" data-name="パス 155" d="M162.08,313.608c1.284,1.151,1.36,2.57,1.657,4.229-.444.268-1.169.326-1.38,1.1-.385,1.412,2.214,4.827-2.1,3.868-1.978-.44-4.238-1.344-5.95-.586a2.734,2.734,0,0,0-.362.2l-.036-.02-.091-.058a4.815,4.815,0,0,1-.5-.377c-.02-.017-.038-.035-.058-.052a3.883,3.883,0,0,1-.364-.379l-.058-.07a3.5,3.5,0,0,1-.5-.874,3.344,3.344,0,0,0,2.531-.154c2.3-.776,2.992-2.738,3.517-4.227a3.944,3.944,0,0,1,3.237-2.948A4.465,4.465,0,0,1,162.08,313.608Z" transform="translate(-152.342 -313.256)" fill="#79b329"/>
        </g>
      </g>
      <g id="グループ_177" data-name="グループ 177" transform="translate(204.474 390.146)">
        <g id="グループ_175" data-name="グループ 175" transform="translate(0)">
          <path id="パス_156" data-name="パス 156" d="M180.861,362.6c-.221-2.111,1.33-3.588,2.474-5.306,1.173-1.761,2.491-5.9,4.476-4.574a7.97,7.97,0,0,1,1.72,1.913,13.71,13.71,0,0,1,3.681,4.625c1.1,2.369,2.287,4.514-1.558,7.035-2.273,1.488-5.1,3.016-7.171,1.517C183.036,366.759,181.05,364.4,180.861,362.6Z" transform="translate(-180.84 -352.459)" fill="#5e7459"/>
          <path id="パス_157" data-name="パス 157" d="M189.135,366.316l-.11.036c-1.427.476-2.57.475-2.875-.386,0-.009-.015-.009-.024-.006-1.169.53-.9,0-1.464-.289-.008,0-.024.006-.024.006s-1.283-.867-1.424-.933a4.1,4.1,0,0,1-.939-.441l-.015-.011a2.775,2.775,0,0,1-.828-1.546,3.02,3.02,0,0,1-.059-.743,4.3,4.3,0,0,1,.689-1.895c.352-.58.755-1.163,1.181-1.747.741-1.017,1.558-2.114,2.073-2.875,1.108-1.636,1.946-3.222,4.381-.559.568.621,1.15,1.391,1.724,2.127a17.939,17.939,0,0,0,1.822,2.2c1.077,2.056.919,3.646-.32,5.128a19.064,19.064,0,0,1-2.13,1.223,16.113,16.113,0,0,1-1.587.679Z" transform="translate(-180.564 -351.914)" fill="#6f8e6f"/>
          <path id="パス_158" data-name="パス 158" d="M182.417,360.106a8.925,8.925,0,0,1,1.942-1.561c.793-.53,1.315-1.791,1.955-2.732.076-.079.149-.163.228-.233.753-.667,1.429-.415,2.52.7.729.746,2.657,2.479,1.895,3.327-.463.514-1.511.536-2.146.691-.406.1-1.336.307-1.067.982.218.542,1.143.415,1.59.419.7,0,1.761-.03,1.522.843a1.693,1.693,0,0,1-1.391,1.09,8.731,8.731,0,0,1-3.684.056,7.827,7.827,0,0,1-2.922-1.029A1.636,1.636,0,0,1,182.417,360.106Z" transform="translate(-180.244 -351.021)" fill="#72977b"/>
        </g>
        <g id="グループ_176" data-name="グループ 176" transform="translate(0 2.857)" opacity="0.37" style="mix-blend-mode: screen;isolation: isolate">
          <path id="パス_159" data-name="パス 159" d="M180.861,361.618c-.181-1.73.823-2.875,1.828-4.348.562.085,1.195.516,1.943.059,1.373-.834,1.823-5.174,4.609-1.605,1.278,1.639,2.436,3.818,4.4,4.36a3.36,3.36,0,0,0,.444.084l.014.04c.011.035.021.07.03.105a4.249,4.249,0,0,1,.123.616c0,.027,0,.053.008.079a3.464,3.464,0,0,1,.012.531c0,.032,0,.062-.006.093a3.4,3.4,0,0,1-.248,1c-.216-.587-.972-1.1-2.173-1.542-2.458-.915-4.489.146-6.032.948-2.045,1.064-3.687.874-4.844.149A4.091,4.091,0,0,1,180.861,361.618Z" transform="translate(-180.84 -354.336)" fill="#488a20"/>
        </g>
      </g>
      <g id="グループ_179" data-name="グループ 179" transform="translate(188.873 353.382)">
        <g id="グループ_178" data-name="グループ 178">
          <path id="パス_160" data-name="パス 160" d="M170.917,331.258c-1.106,1.928.81,3.791,2.275,4.955,1.5,1.193,3.806,2.943,5.889,2.315a3.228,3.228,0,0,0,1.394-.837,3.074,3.074,0,0,0,1.7-2.29c.905-3.61-1.272-7.772-5.661-7.009C174.694,328.709,171.862,329.613,170.917,331.258Z" transform="translate(-170.588 -328.3)" fill="#58665a"/>
          <path id="パス_161" data-name="パス 161" d="M179.426,329.477l-.065-.035c-.867-.434-1.764-.618-2.3,0a.016.016,0,0,1-.021,0c-.72-.618-.706-.17-1.266-.091-.008,0-.017,0-.018-.011a6.829,6.829,0,0,1-1.54.31,5.7,5.7,0,0,0-1.032.006l-.018,0a2.448,2.448,0,0,0-1.389.971,2.052,2.052,0,0,0-.3.639,2.553,2.553,0,0,0,.4,1.867,7.484,7.484,0,0,0,1.28,1.531,19.227,19.227,0,0,0,2.538,1.892c1.421.91,3.059,1.555,4.547.368a4.006,4.006,0,0,0,.852-1.01c.225-.393.452-.854.726-1.237a6.589,6.589,0,0,0-.342-3.743,11.7,11.7,0,0,0-1.112-.884c-.263-.175-.568-.374-.893-.549Z" transform="translate(-170.152 -327.912)" fill="#718074"/>
          <path id="パス_162" data-name="パス 162" d="M172.465,332.064a6.587,6.587,0,0,0,1.994,1.5,25.04,25.04,0,0,1,2.179,1.852c.087.047.17.1.26.138a1.842,1.842,0,0,0,2.176-.266c.452-.371,1.47-1.333.84-1.905a4.345,4.345,0,0,0-1.605-.551c-.31-.093-1.053-.312-.829-.765.178-.367.869-.205,1.188-.186.5.033,1.178.081,1.1-.587a1.016,1.016,0,0,0-.8-.863,9.61,9.61,0,0,0-2.736-.42,11.9,11.9,0,0,0-2.783.1C172.4,330.309,171.754,331.163,172.465,332.064Z" transform="translate(-169.764 -327.424)" fill="#758981"/>
        </g>
        <path id="パス_163" data-name="パス 163" d="M170.917,330.413c-.907,1.581.218,3.117,1.459,4.259a5.2,5.2,0,0,1,2.544.021c1.6.628,3.123,2.867,4.829,1.146.784-.791,1.207-2.024,2.351-2.435a1.869,1.869,0,0,1,.263-.07v-.027l0-.075c.008-.148.009-.3.006-.444l0-.058c0-.132-.011-.265-.023-.4l-.006-.07a6.372,6.372,0,0,0-.123-.767,2.223,2.223,0,0,1-1.389,1.231c-1.578.619-3.324-.312-4.593-1.181a7.986,7.986,0,0,0-4.966-1.624A3.113,3.113,0,0,0,170.917,330.413Z" transform="translate(-170.588 -327.455)" fill="#758981" opacity="0.37" style="mix-blend-mode: screen;isolation: isolate"/>
      </g>
      <g id="グループ_181" data-name="グループ 181" transform="translate(176.097 301.737)">
        <g id="グループ_180" data-name="グループ 180">
          <path id="パス_164" data-name="パス 164" d="M163.065,296.841c2.1-3.6,7.079-2.522,10.458-1.44,3.465,1.109,8.644,2.888,9.671,6.69a5.565,5.565,0,0,1-.006,2.957c.227,1.5-.342,3.141-2.106,4.865-5.078,4.959-14.13,5.76-17.213-1.691C162.587,305.13,161.277,299.91,163.065,296.841Z" transform="translate(-162.192 -294.362)" fill="#758969"/>
          <path id="パス_165" data-name="パス 165" d="M169.168,311.06l-.12-.067c-1.58-.893-2.771-2.079-2.292-3.511.006-.014-.008-.027-.021-.03-1.735-.485-.982-.908-1.408-1.841a.027.027,0,0,0-.035-.017,11.477,11.477,0,0,0-1.01-2.657,9.794,9.794,0,0,1-1.012-1.58l-.015-.033a4.24,4.24,0,0,1,.231-3.08,3.927,3.927,0,0,1,.759-1.1,5.275,5.275,0,0,1,3.491-1.233,15.018,15.018,0,0,1,3.8.435,36.731,36.731,0,0,1,5.649,2c2.916,1.266,5.606,3.124,5.116,6.571a7.245,7.245,0,0,1-.829,2.3c-.428.733-.966,1.535-1.329,2.334a13.583,13.583,0,0,1-6.537,3.188,22.723,22.723,0,0,1-2.566-.822c-.551-.227-1.182-.495-1.8-.819Z" transform="translate(-161.738 -293.555)" fill="#87a37f"/>
          <path id="パス_166" data-name="パス 166" d="M167,297.277a12.713,12.713,0,0,1,4.465,1.551c1.583.8,3.552.875,5.227,1.49.163.085.329.164.487.259a3.169,3.169,0,0,1,1.715,3.585c-.166,1.059-.75,3.566-2.322,3.17-.954-.24-1.779-1.307-2.5-1.9-.463-.382-1.558-1.3-2.091-.507-.428.636.522,1.529.873,2,.548.729,1.3,1.718.113,2.258a2.019,2.019,0,0,1-2.22-.365,16.969,16.969,0,0,1-3.406-3.759,20.354,20.354,0,0,1-2.6-4.343C164.033,298.917,164.806,297.084,167,297.277Z" transform="translate(-160.995 -292.849)" fill="#82ac84"/>
        </g>
        <path id="パス_167" data-name="パス 167" d="M162.81,296.879a5.392,5.392,0,0,0-.12,1.835c.306,2.812,3.432,3.81,4.477,6.254.948,2.216,1.269,3.628,3.842,4.591,5.34,2,8.848-2.438,7.826-7.172a14.578,14.578,0,0,0-4.294-7.123c3.384,1.129,7.721,2.911,8.651,6.356a5.565,5.565,0,0,1-.006,2.957c.227,1.5-.342,3.141-2.106,4.865q-.235.231-.482.447h0c-.212.187-.429.364-.651.537-.056.044-.113.085-.169.128-.189.143-.382.28-.577.412-.04.027-.078.055-.117.081-.239.158-.482.307-.729.45-.032.018-.065.035-.1.055-.222.125-.449.245-.679.358l-.12.061a13.737,13.737,0,0,1-1.616.653l-.073.024c-4.614,1.5-9.732.342-11.9-4.9C162.655,304.822,161.419,299.991,162.81,296.879Z" transform="translate(-162.191 -293.891)" fill="#82ac84" opacity="0.29" style="mix-blend-mode: multiply;isolation: isolate"/>
      </g>
      <path id="パス_168" data-name="パス 168" d="M178.194,416.148c1.135-6.349,2.525-12.675,4.048-18.944,3.214-13.229,8.479-26.412,7.983-40.216,0-.064.1-.076.105-.011,1.053,13.186-3.949,25.7-7.052,38.294q-2.4,9.747-4.1,19.629c-1.15,6.725-1.432,13.935-3.212,20.5-.032.116-.239.137-.243-.006C175.464,429.118,177.1,422.3,178.194,416.148Z" transform="translate(20.95 40.022)" fill="url(#linear-gradient-16)"/>
      <path id="パス_169" data-name="パス 169" d="M155.371,316.389c6.18,5.557,12.6,13.325,14.057,21.483.021.12-.151.143-.2.047-2.044-3.765-3.509-7.676-5.836-11.334a57.626,57.626,0,0,0-8.151-10.041C155.148,316.453,155.27,316.3,155.371,316.389Z" transform="translate(10.26 18.854)" fill="url(#linear-gradient-17)"/>
      <path id="パス_170" data-name="パス 170" d="M175.36,331.312a.017.017,0,1,1,.021-.026,16.631,16.631,0,0,1,6.881,16.532c-.668,3.537-2.788,6.343-4.8,9.28-3.424,4.994-5.241,10.289-4.765,16.347a.071.071,0,0,1-.14.014c-1.061-7.441,1.576-12.891,5.739-18.89C183.567,346.97,182.919,337.6,175.36,331.312Z" transform="translate(19.189 26.638)" fill="url(#linear-gradient-18)"/>
      <path id="パス_171" data-name="パス 171" d="M166.732,300.791c3.027.628,5.042,2.479,7.16,4.6,3.369,3.378,6.611,6.9,9.843,10.4,4.021,4.354,8.081,9.274,8.759,14.965-.164.773-.336,1.546-.534,2.312.353-6.685-4.116-12.059-8.706-16.937q-3.264-3.467-6.5-6.961c-2.893-3.117-5.6-7.158-10.06-8.111C166.511,301.026,166.551,300.753,166.732,300.791Z" transform="translate(16.191 10.727)" fill="url(#linear-gradient-19)"/>
      <path id="パス_172" data-name="パス 172" d="M161.416,292.024a.035.035,0,1,1-.011.07A.035.035,0,1,1,161.416,292.024Z" transform="translate(13.478 6.155)" fill="url(#linear-gradient-20)"/>
    </g>
  </g>
</svg>
