<svg xmlns="http://www.w3.org/2000/svg" width="298.633" height="301.758" viewBox="0 0 298.633 301.758">
  <path id="パス_178" data-name="パス 178" d="M298.047-240.43,259.57-202.344q-36.523-38.672-85.156-38.672-42.383,0-71,28.125T74.8-144.531q0,41.6,29.688,70.508t73.242,28.906q28.32,0,47.754-11.914t31.348-37.3h-83.2V-145.7H318.164l.391,12.109q0,37.7-19.531,71.484T248.438-10.547Q217.383,7.227,175.586,7.227q-44.727,0-79.785-19.434T40.332-67.578a154.417,154.417,0,0,1-20.41-77.539q0-57.031,37.7-99.219,44.727-50.2,116.406-50.2a177.327,177.327,0,0,1,70.117,13.867Q271.68-268.945,298.047-240.43Z" transform="translate(-19.922 294.531)" fill="#202020"/>
</svg>
